<?xml version="1.0" standalone="no"?>
 <!DOCTYPE svg PUBLIC "-//W3C//DTD SVG 1.1//EN" 
 "http://www.w3.org/Graphics/SVG/1.1/DTD/svg11.dtd"> 
<svg
  xmlns:svg="http://www.w3.org/2000/svg"
  xmlns="http://www.w3.org/2000/svg"
  xmlns:xlink="http://www.w3.org/1999/xlink"
  version="1.1"
  width="297.0022mm" height="210.0072mm" viewBox="0.0000 0.0000 297.0022 210.0072">
<title>SVG Image created as hackbar-Edge_Cuts.svg date 2026/02/10 23:08:04 </title>
  <desc>Image generated by PCBNEW </desc>
<g style="fill:#000000; fill-opacity:1.0000;stroke:#000000; stroke-opacity:1.0000;
stroke-linecap:round; stroke-linejoin:round;"
 transform="translate(0 0) scale(1 1)">
</g>
<g style="fill:none; 
stroke:#000000; stroke-width:0.0500; stroke-opacity:1; 
stroke-linecap:round; stroke-linejoin:round;">
<path d="M78.5000 57.0000 A1.5000 1.5000 0.0 0 0 77.0000 58.5000" />
<path d="M236.0000 58.5000 A1.5000 1.5000 0.0 0 0 234.5000 57.0000" />
<path d="M77.0000 80.5000 A1.5000 1.5000 0.0 0 0 78.5000 82.0000" />
<path d="M234.5000 82.0000
L78.5000 82.0000
" />
<path d="M236.0000 58.5000
L236.0000 80.5000
" />
<path d="M234.5000 82.0000 A1.5000 1.5000 0.0 0 0 236.0000 80.5000" />
<path d="M77.0000 80.5000
L77.0000 58.5000
" />
<path d="M78.5000 57.0000
L234.5000 57.0000
" />
</g>
<g style="fill:none; 
stroke:#000000; stroke-width:0.1000; stroke-opacity:1; 
stroke-linecap:round; stroke-linejoin:round;">
<path d="M110.2275 60.0728
L110.2275 61.4785
" />
<path d="M109.3219 62.2757
L107.7330 62.2757
" />
<path d="M107.7330 59.2757
L109.3219 59.2757
" />
<path d="M106.8275 61.4785
L106.8275 60.0728
" />
<path d="M110.2275 61.4785 A0.5000 0.5000 0.0 0 0 110.2770 61.6954" />
<path d="M109.5742 62.3440 A0.5000 0.5000 0.0 0 0 110.2770 61.6954" />
<path d="M110.2770 59.8560 A0.5000 0.5000 0.0 0 0 110.2275 60.0728" />
<path d="M110.2770 59.8560 A0.5000 0.5000 0.0 0 0 109.5742 59.2074" />
<path d="M109.3219 59.2757 A0.5000 0.5000 0.0 0 0 109.5742 59.2074" />
<path d="M109.5742 62.3440 A0.5000 0.5000 0.0 0 0 109.3220 62.2757" />
<path d="M107.4808 59.2074 A0.5000 0.5000 0.0 0 0 107.7330 59.2757" />
<path d="M107.7330 62.2757 A0.5000 0.5000 0.0 0 0 107.4808 62.3440" />
<path d="M106.7780 61.6954 A0.5000 0.5000 0.0 0 0 107.4808 62.3440" />
<path d="M106.7780 61.6954 A0.5000 0.5000 0.0 0 0 106.8275 61.4785" />
<path d="M107.4808 59.2074 A0.5000 0.5000 0.0 0 0 106.7780 59.8560" />
<path d="M106.8275 60.0728 A0.5000 0.5000 0.0 0 0 106.7780 59.8560" />
<path d="M129.2817 60.0728
L129.2817 61.4785
" />
<path d="M128.3761 62.2757
L126.7872 62.2757
" />
<path d="M126.7872 59.2757
L128.3761 59.2757
" />
<path d="M125.8817 61.4785
L125.8817 60.0728
" />
<path d="M129.2817 61.4785 A0.5000 0.5000 0.0 0 0 129.3311 61.6954" />
<path d="M128.6284 62.3440 A0.5000 0.5000 0.0 0 0 129.3311 61.6954" />
<path d="M129.3311 59.8560 A0.5000 0.5000 0.0 0 0 129.2817 60.0728" />
<path d="M129.3311 59.8560 A0.5000 0.5000 0.0 0 0 128.6284 59.2074" />
<path d="M128.3761 59.2757 A0.5000 0.5000 0.0 0 0 128.6284 59.2074" />
<path d="M128.6284 62.3440 A0.5000 0.5000 0.0 0 0 128.3761 62.2757" />
<path d="M126.5350 59.2074 A0.5000 0.5000 0.0 0 0 126.7872 59.2757" />
<path d="M126.7872 62.2757 A0.5000 0.5000 0.0 0 0 126.5350 62.3440" />
<path d="M125.8322 61.6954 A0.5000 0.5000 0.0 0 0 126.5350 62.3440" />
<path d="M125.8322 61.6954 A0.5000 0.5000 0.0 0 0 125.8817 61.4785" />
<path d="M126.5350 59.2074 A0.5000 0.5000 0.0 0 0 125.8322 59.8560" />
<path d="M125.8817 60.0728 A0.5000 0.5000 0.0 0 0 125.8322 59.8560" />
<path d="M205.4983 60.0728
L205.4983 61.4785
" />
<path d="M204.5928 62.2757
L203.0039 62.2757
" />
<path d="M203.0039 59.2757
L204.5928 59.2757
" />
<path d="M202.0983 61.4785
L202.0983 60.0728
" />
<path d="M205.4983 61.4785 A0.5000 0.5000 0.0 0 0 205.5478 61.6954" />
<path d="M204.8450 62.3440 A0.5000 0.5000 0.0 0 0 205.5478 61.6954" />
<path d="M205.5478 59.8560 A0.5000 0.5000 0.0 0 0 205.4983 60.0728" />
<path d="M205.5478 59.8560 A0.5000 0.5000 0.0 0 0 204.8450 59.2074" />
<path d="M204.5928 59.2757 A0.5000 0.5000 0.0 0 0 204.8450 59.2074" />
<path d="M204.8450 62.3440 A0.5000 0.5000 0.0 0 0 204.5928 62.2757" />
<path d="M202.7516 59.2074 A0.5000 0.5000 0.0 0 0 203.0039 59.2757" />
<path d="M203.0039 62.2757 A0.5000 0.5000 0.0 0 0 202.7516 62.3440" />
<path d="M202.0488 61.6954 A0.5000 0.5000 0.0 0 0 202.7516 62.3440" />
<path d="M202.0489 61.6954 A0.5000 0.5000 0.0 0 0 202.0983 61.4785" />
<path d="M202.7516 59.2074 A0.5000 0.5000 0.0 0 0 202.0488 59.8560" />
<path d="M202.0983 60.0728 A0.5000 0.5000 0.0 0 0 202.0488 59.8560" />
<path d="M148.3358 60.0728
L148.3358 61.4785
" />
<path d="M147.4303 62.2757
L145.8414 62.2757
" />
<path d="M145.8414 59.2757
L147.4303 59.2757
" />
<path d="M144.9358 61.4785
L144.9358 60.0728
" />
<path d="M148.3358 61.4785 A0.5000 0.5000 0.0 0 0 148.3853 61.6954" />
<path d="M147.6825 62.3440 A0.5000 0.5000 0.0 0 0 148.3853 61.6954" />
<path d="M148.3853 59.8560 A0.5000 0.5000 0.0 0 0 148.3358 60.0728" />
<path d="M148.3853 59.8560 A0.5000 0.5000 0.0 0 0 147.6825 59.2074" />
<path d="M147.4303 59.2757 A0.5000 0.5000 0.0 0 0 147.6825 59.2074" />
<path d="M147.6825 62.3440 A0.5000 0.5000 0.0 0 0 147.4303 62.2757" />
<path d="M145.5891 59.2074 A0.5000 0.5000 0.0 0 0 145.8414 59.2757" />
<path d="M145.8414 62.2757 A0.5000 0.5000 0.0 0 0 145.5891 62.3440" />
<path d="M144.8863 61.6954 A0.5000 0.5000 0.0 0 0 145.5891 62.3440" />
<path d="M144.8864 61.6954 A0.5000 0.5000 0.0 0 0 144.9358 61.4785" />
<path d="M145.5891 59.2074 A0.5000 0.5000 0.0 0 0 144.8863 59.8560" />
<path d="M144.9358 60.0728 A0.5000 0.5000 0.0 0 0 144.8863 59.8560" />
<path d="M186.4442 60.0728
L186.4442 61.4785
" />
<path d="M185.5386 62.2757
L183.9497 62.2757
" />
<path d="M183.9497 59.2757
L185.5386 59.2757
" />
<path d="M183.0442 61.4785
L183.0442 60.0728
" />
<path d="M186.4442 61.4785 A0.5000 0.5000 0.0 0 0 186.4936 61.6954" />
<path d="M185.7909 62.3440 A0.5000 0.5000 0.0 0 0 186.4936 61.6954" />
<path d="M186.4936 59.8560 A0.5000 0.5000 0.0 0 0 186.4442 60.0728" />
<path d="M186.4936 59.8560 A0.5000 0.5000 0.0 0 0 185.7909 59.2074" />
<path d="M185.5386 59.2757 A0.5000 0.5000 0.0 0 0 185.7909 59.2074" />
<path d="M185.7909 62.3440 A0.5000 0.5000 0.0 0 0 185.5386 62.2757" />
<path d="M183.6975 59.2074 A0.5000 0.5000 0.0 0 0 183.9497 59.2757" />
<path d="M183.9497 62.2757 A0.5000 0.5000 0.0 0 0 183.6975 62.3440" />
<path d="M182.9947 61.6954 A0.5000 0.5000 0.0 0 0 183.6975 62.3440" />
<path d="M182.9947 61.6954 A0.5000 0.5000 0.0 0 0 183.0442 61.4785" />
<path d="M183.6975 59.2074 A0.5000 0.5000 0.0 0 0 182.9947 59.8560" />
<path d="M183.0442 60.0728 A0.5000 0.5000 0.0 0 0 182.9947 59.8560" />
<path d="M167.3900 60.0728
L167.3900 61.4785
" />
<path d="M166.4844 62.2757
L164.8955 62.2757
" />
<path d="M164.8955 59.2757
L166.4844 59.2757
" />
<path d="M163.9900 61.4785
L163.9900 60.0728
" />
<path d="M167.3900 61.4785 A0.5000 0.5000 0.0 0 0 167.4395 61.6954" />
<path d="M166.7367 62.3440 A0.5000 0.5000 0.0 0 0 167.4395 61.6954" />
<path d="M167.4395 59.8560 A0.5000 0.5000 0.0 0 0 167.3900 60.0728" />
<path d="M167.4395 59.8560 A0.5000 0.5000 0.0 0 0 166.7367 59.2074" />
<path d="M166.4845 59.2757 A0.5000 0.5000 0.0 0 0 166.7367 59.2074" />
<path d="M166.7367 62.3440 A0.5000 0.5000 0.0 0 0 166.4845 62.2757" />
<path d="M164.6433 59.2074 A0.5000 0.5000 0.0 0 0 164.8955 59.2757" />
<path d="M164.8955 62.2757 A0.5000 0.5000 0.0 0 0 164.6433 62.3440" />
<path d="M163.9405 61.6954 A0.5000 0.5000 0.0 0 0 164.6433 62.3440" />
<path d="M163.9405 61.6954 A0.5000 0.5000 0.0 0 0 163.9900 61.4785" />
<path d="M164.6433 59.2074 A0.5000 0.5000 0.0 0 0 163.9405 59.8560" />
<path d="M163.9900 60.0728 A0.5000 0.5000 0.0 0 0 163.9405 59.8560" />
<path d="M224.5525 60.0728
L224.5525 61.4785
" />
<path d="M223.6470 62.2757
L222.0580 62.2757
" />
<path d="M222.0580 59.2757
L223.6470 59.2757
" />
<path d="M221.1525 61.4785
L221.1525 60.0728
" />
<path d="M224.5525 61.4785 A0.5000 0.5000 0.0 0 0 224.6020 61.6954" />
<path d="M223.8992 62.3440 A0.5000 0.5000 0.0 0 0 224.6020 61.6954" />
<path d="M224.6020 59.8560 A0.5000 0.5000 0.0 0 0 224.5525 60.0728" />
<path d="M224.6020 59.8560 A0.5000 0.5000 0.0 0 0 223.8992 59.2074" />
<path d="M223.6470 59.2757 A0.5000 0.5000 0.0 0 0 223.8992 59.2074" />
<path d="M223.8992 62.3440 A0.5000 0.5000 0.0 0 0 223.6470 62.2757" />
<path d="M221.8058 59.2074 A0.5000 0.5000 0.0 0 0 222.0580 59.2757" />
<path d="M222.0580 62.2757 A0.5000 0.5000 0.0 0 0 221.8058 62.3440" />
<path d="M221.1030 61.6954 A0.5000 0.5000 0.0 0 0 221.8058 62.3440" />
<path d="M221.1030 61.6954 A0.5000 0.5000 0.0 0 0 221.1525 61.4785" />
<path d="M221.8058 59.2074 A0.5000 0.5000 0.0 0 0 221.1030 59.8560" />
<path d="M221.1525 60.0728 A0.5000 0.5000 0.0 0 0 221.1030 59.8560" />
<path d="M125.9667 74.7472
L125.9667 73.3415
" />
<path d="M126.8722 72.5443
L128.4611 72.5443
" />
<path d="M128.4611 75.5443
L126.8722 75.5443
" />
<path d="M129.3667 73.3415
L129.3667 74.7472
" />
<path d="M125.9667 73.3415 A0.5000 0.5000 0.0 0 0 125.9172 73.1246" />
<path d="M126.6200 72.4760 A0.5000 0.5000 0.0 0 0 125.9172 73.1246" />
<path d="M125.9172 74.9640 A0.5000 0.5000 0.0 0 0 125.9667 74.7472" />
<path d="M125.9172 74.9640 A0.5000 0.5000 0.0 0 0 126.6200 75.6126" />
<path d="M126.8722 75.5443 A0.5000 0.5000 0.0 0 0 126.6200 75.6126" />
<path d="M126.6200 72.4760 A0.5000 0.5000 0.0 0 0 126.8722 72.5443" />
<path d="M128.7134 75.6126 A0.5000 0.5000 0.0 0 0 128.4611 75.5443" />
<path d="M128.4611 72.5443 A0.5000 0.5000 0.0 0 0 128.7134 72.4760" />
<path d="M129.4162 73.1246 A0.5000 0.5000 0.0 0 0 128.7134 72.4760" />
<path d="M129.4161 73.1246 A0.5000 0.5000 0.0 0 0 129.3667 73.3415" />
<path d="M128.7134 75.6126 A0.5000 0.5000 0.0 0 0 129.4162 74.9640" />
<path d="M129.3667 74.7472 A0.5000 0.5000 0.0 0 0 129.4162 74.9640" />
<path d="M145.0333 74.7472
L145.0333 73.3415
" />
<path d="M145.9389 72.5443
L147.5278 72.5443
" />
<path d="M147.5278 75.5443
L145.9389 75.5443
" />
<path d="M148.4333 73.3415
L148.4333 74.7472
" />
<path d="M145.0333 73.3415 A0.5000 0.5000 0.0 0 0 144.9839 73.1246" />
<path d="M145.6866 72.4760 A0.5000 0.5000 0.0 0 0 144.9839 73.1246" />
<path d="M144.9839 74.9640 A0.5000 0.5000 0.0 0 0 145.0333 74.7472" />
<path d="M144.9839 74.9640 A0.5000 0.5000 0.0 0 0 145.6866 75.6126" />
<path d="M145.9389 75.5443 A0.5000 0.5000 0.0 0 0 145.6866 75.6126" />
<path d="M145.6866 72.4760 A0.5000 0.5000 0.0 0 0 145.9389 72.5443" />
<path d="M147.7800 75.6126 A0.5000 0.5000 0.0 0 0 147.5278 75.5443" />
<path d="M147.5278 72.5443 A0.5000 0.5000 0.0 0 0 147.7800 72.4760" />
<path d="M148.4828 73.1246 A0.5000 0.5000 0.0 0 0 147.7800 72.4760" />
<path d="M148.4828 73.1246 A0.5000 0.5000 0.0 0 0 148.4333 73.3415" />
<path d="M147.7800 75.6126 A0.5000 0.5000 0.0 0 0 148.4828 74.9640" />
<path d="M148.4333 74.7472 A0.5000 0.5000 0.0 0 0 148.4828 74.9640" />
<path d="M106.9000 74.7472
L106.9000 73.3415
" />
<path d="M107.8055 72.5443
L109.3945 72.5443
" />
<path d="M109.3945 75.5443
L107.8055 75.5443
" />
<path d="M110.3000 73.3415
L110.3000 74.7472
" />
<path d="M106.9000 73.3415 A0.5000 0.5000 0.0 0 0 106.8505 73.1246" />
<path d="M107.5533 72.4760 A0.5000 0.5000 0.0 0 0 106.8505 73.1246" />
<path d="M106.8505 74.9640 A0.5000 0.5000 0.0 0 0 106.9000 74.7472" />
<path d="M106.8505 74.9640 A0.5000 0.5000 0.0 0 0 107.5533 75.6126" />
<path d="M107.8055 75.5443 A0.5000 0.5000 0.0 0 0 107.5533 75.6126" />
<path d="M107.5533 72.4760 A0.5000 0.5000 0.0 0 0 107.8055 72.5443" />
<path d="M109.6467 75.6126 A0.5000 0.5000 0.0 0 0 109.3945 75.5443" />
<path d="M109.3945 72.5443 A0.5000 0.5000 0.0 0 0 109.6467 72.4760" />
<path d="M110.3495 73.1246 A0.5000 0.5000 0.0 0 0 109.6467 72.4760" />
<path d="M110.3495 73.1246 A0.5000 0.5000 0.0 0 0 110.3000 73.3415" />
<path d="M109.6467 75.6126 A0.5000 0.5000 0.0 0 0 110.3495 74.9640" />
<path d="M110.3000 74.7472 A0.5000 0.5000 0.0 0 0 110.3495 74.9640" />
<path d="M202.2333 74.7472
L202.2333 73.3415
" />
<path d="M203.1389 72.5443
L204.7278 72.5443
" />
<path d="M204.7278 75.5443
L203.1389 75.5443
" />
<path d="M205.6333 73.3415
L205.6333 74.7472
" />
<path d="M202.2333 73.3415 A0.5000 0.5000 0.0 0 0 202.1839 73.1246" />
<path d="M202.8866 72.4760 A0.5000 0.5000 0.0 0 0 202.1839 73.1246" />
<path d="M202.1839 74.9640 A0.5000 0.5000 0.0 0 0 202.2333 74.7472" />
<path d="M202.1839 74.9640 A0.5000 0.5000 0.0 0 0 202.8866 75.6126" />
<path d="M203.1389 75.5443 A0.5000 0.5000 0.0 0 0 202.8866 75.6126" />
<path d="M202.8866 72.4760 A0.5000 0.5000 0.0 0 0 203.1389 72.5443" />
<path d="M204.9800 75.6126 A0.5000 0.5000 0.0 0 0 204.7278 75.5443" />
<path d="M204.7278 72.5443 A0.5000 0.5000 0.0 0 0 204.9800 72.4760" />
<path d="M205.6828 73.1246 A0.5000 0.5000 0.0 0 0 204.9800 72.4760" />
<path d="M205.6828 73.1246 A0.5000 0.5000 0.0 0 0 205.6333 73.3415" />
<path d="M204.9800 75.6126 A0.5000 0.5000 0.0 0 0 205.6828 74.9640" />
<path d="M205.6333 74.7472 A0.5000 0.5000 0.0 0 0 205.6828 74.9640" />
<path d="M221.3000 74.7472
L221.3000 73.3415
" />
<path d="M222.2055 72.5443
L223.7945 72.5443
" />
<path d="M223.7945 75.5443
L222.2055 75.5443
" />
<path d="M224.7000 73.3415
L224.7000 74.7472
" />
<path d="M221.3000 73.3415 A0.5000 0.5000 0.0 0 0 221.2505 73.1246" />
<path d="M221.9533 72.4760 A0.5000 0.5000 0.0 0 0 221.2505 73.1246" />
<path d="M221.2505 74.9640 A0.5000 0.5000 0.0 0 0 221.3000 74.7472" />
<path d="M221.2505 74.9640 A0.5000 0.5000 0.0 0 0 221.9533 75.6126" />
<path d="M222.2055 75.5443 A0.5000 0.5000 0.0 0 0 221.9533 75.6126" />
<path d="M221.9533 72.4760 A0.5000 0.5000 0.0 0 0 222.2055 72.5443" />
<path d="M224.0467 75.6126 A0.5000 0.5000 0.0 0 0 223.7945 75.5443" />
<path d="M223.7945 72.5443 A0.5000 0.5000 0.0 0 0 224.0467 72.4760" />
<path d="M224.7495 73.1246 A0.5000 0.5000 0.0 0 0 224.0467 72.4760" />
<path d="M224.7495 73.1246 A0.5000 0.5000 0.0 0 0 224.7000 73.3415" />
<path d="M224.0467 75.6126 A0.5000 0.5000 0.0 0 0 224.7495 74.9640" />
<path d="M224.7000 74.7472 A0.5000 0.5000 0.0 0 0 224.7495 74.9640" />
<path d="M183.1667 74.7472
L183.1667 73.3415
" />
<path d="M184.0722 72.5443
L185.6611 72.5443
" />
<path d="M185.6611 75.5443
L184.0722 75.5443
" />
<path d="M186.5667 73.3415
L186.5667 74.7472
" />
<path d="M183.1667 73.3415 A0.5000 0.5000 0.0 0 0 183.1172 73.1246" />
<path d="M183.8200 72.4760 A0.5000 0.5000 0.0 0 0 183.1172 73.1246" />
<path d="M183.1172 74.9640 A0.5000 0.5000 0.0 0 0 183.1667 74.7472" />
<path d="M183.1172 74.9640 A0.5000 0.5000 0.0 0 0 183.8200 75.6126" />
<path d="M184.0722 75.5443 A0.5000 0.5000 0.0 0 0 183.8200 75.6126" />
<path d="M183.8200 72.4760 A0.5000 0.5000 0.0 0 0 184.0722 72.5443" />
<path d="M185.9134 75.6126 A0.5000 0.5000 0.0 0 0 185.6611 75.5443" />
<path d="M185.6611 72.5443 A0.5000 0.5000 0.0 0 0 185.9134 72.4760" />
<path d="M186.6162 73.1246 A0.5000 0.5000 0.0 0 0 185.9134 72.4760" />
<path d="M186.6161 73.1246 A0.5000 0.5000 0.0 0 0 186.5667 73.3415" />
<path d="M185.9134 75.6126 A0.5000 0.5000 0.0 0 0 186.6162 74.9640" />
<path d="M186.5667 74.7472 A0.5000 0.5000 0.0 0 0 186.6162 74.9640" />
<path d="M164.1000 74.7472
L164.1000 73.3415
" />
<path d="M165.0055 72.5443
L166.5945 72.5443
" />
<path d="M166.5945 75.5443
L165.0055 75.5443
" />
<path d="M167.5000 73.3415
L167.5000 74.7472
" />
<path d="M164.1000 73.3415 A0.5000 0.5000 0.0 0 0 164.0505 73.1246" />
<path d="M164.7533 72.4760 A0.5000 0.5000 0.0 0 0 164.0505 73.1246" />
<path d="M164.0505 74.9640 A0.5000 0.5000 0.0 0 0 164.1000 74.7472" />
<path d="M164.0505 74.9640 A0.5000 0.5000 0.0 0 0 164.7533 75.6126" />
<path d="M165.0055 75.5443 A0.5000 0.5000 0.0 0 0 164.7533 75.6126" />
<path d="M164.7533 72.4760 A0.5000 0.5000 0.0 0 0 165.0055 72.5443" />
<path d="M166.8467 75.6126 A0.5000 0.5000 0.0 0 0 166.5945 75.5443" />
<path d="M166.5945 72.5443 A0.5000 0.5000 0.0 0 0 166.8467 72.4760" />
<path d="M167.5495 73.1246 A0.5000 0.5000 0.0 0 0 166.8467 72.4760" />
<path d="M167.5495 73.1246 A0.5000 0.5000 0.0 0 0 167.5000 73.3415" />
<path d="M166.8467 75.6126 A0.5000 0.5000 0.0 0 0 167.5495 74.9640" />
<path d="M167.5000 74.7472 A0.5000 0.5000 0.0 0 0 167.5495 74.9640" />
</g>
<g style="fill:none; 
stroke:#000000; stroke-width:0.0500; stroke-opacity:1; 
stroke-linecap:round; stroke-linejoin:round;">
<path d="M83.9500 71.0200 A1.0000 1.0000 0.0 0 0 84.9500 70.0200" />
<path d="M82.9500 70.0200 A1.0000 1.0000 0.0 0 0 83.9500 71.0200" />
<path d="M84.9500 69.2200 A1.0000 1.0000 0.0 0 0 83.9500 68.2200" />
<path d="M83.9500 68.2200 A1.0000 1.0000 0.0 0 0 82.9500 69.2200" />
<path d="M84.9500 69.2200
L84.9500 70.0200
" />
<path d="M82.9500 70.0200
L82.9500 69.2200
" />
<path d="M94.3500 70.0200 A1.0000 1.0000 0.0 0 0 95.3500 71.0200" />
<path d="M95.3500 68.2200 A1.0000 1.0000 0.0 0 0 94.3500 69.2200" />
<path d="M95.3500 71.0200 A1.0000 1.0000 0.0 0 0 96.3500 70.0200" />
<path d="M96.3500 69.2200 A1.0000 1.0000 0.0 0 0 95.3500 68.2200" />
<path d="M94.3500 70.0200
L94.3500 69.2200
" />
<path d="M96.3500 69.2200
L96.3500 70.0200
" />
</g> 
</svg>
