<?xml version="1.0" standalone="no"?>
 <!DOCTYPE svg PUBLIC "-//W3C//DTD SVG 1.1//EN" 
 "http://www.w3.org/Graphics/SVG/1.1/DTD/svg11.dtd"> 
<svg
  xmlns:svg="http://www.w3.org/2000/svg"
  xmlns="http://www.w3.org/2000/svg"
  xmlns:xlink="http://www.w3.org/1999/xlink"
  version="1.1"
  width="297.0022mm" height="210.0072mm" viewBox="0.0000 0.0000 297.0022 210.0072">
<title>SVG Image created as hackbar-F_Silkscreen.svg date 2026/02/10 23:08:04 </title>
  <desc>Image generated by PCBNEW </desc>
<g style="fill:#000000; fill-opacity:1.0000;stroke:#000000; stroke-opacity:1.0000;
stroke-linecap:round; stroke-linejoin:round;"
 transform="translate(0 0) scale(1 1)">
</g>
<g style="fill:none; 
stroke:#000000; stroke-width:0.2000; stroke-opacity:1; 
stroke-linecap:round; stroke-linejoin:round;">
<path d="M172.3250 76.6250 A0.5000 0.5000 0.0 0 0 172.8250 76.1250" />
<path d="M121.2250 62.6250
L134.2250 62.6250
" />
<path d="M210.9250 63.1250 A0.5000 0.5000 0.0 0 0 210.4250 62.6250" />
<path d="M83.1250 62.6250
L96.1250 62.6250
" />
<path d="M172.8250 63.1250
L172.8250 76.1250
" />
<path d="M210.9250 63.1250
L210.9250 76.1250
" />
<path d="M83.1250 62.6250 A0.5000 0.5000 0.0 0 0 82.6250 63.1250" />
<path d="M82.6250 63.1250
L82.6250 76.1250
" />
<path d="M191.8750 63.1250
L191.8750 76.1250
" />
<path d="M96.6250 63.1250 A0.5000 0.5000 0.0 0 0 96.1250 62.6250" />
<path d="M191.3750 76.6250 A0.5000 0.5000 0.0 0 0 191.8750 76.1250" />
<path d="M101.6750 76.1250 A0.5000 0.5000 0.0 0 0 102.1750 76.6250" />
<path d="M158.8250 76.1250 A0.5000 0.5000 0.0 0 0 159.3250 76.6250" />
<path d="M120.7250 63.1250
L120.7250 76.1250
" />
<path d="M115.1750 76.6250 A0.5000 0.5000 0.0 0 0 115.6750 76.1250" />
<path d="M191.8750 63.1250 A0.5000 0.5000 0.0 0 0 191.3750 62.6250" />
<path d="M216.4750 76.6250
L229.4750 76.6250
" />
<path d="M197.4250 62.6250 A0.5000 0.5000 0.0 0 0 196.9250 63.1250" />
<path d="M178.3750 62.6250 A0.5000 0.5000 0.0 0 0 177.8750 63.1250" />
<path d="M134.7250 63.1250 A0.5000 0.5000 0.0 0 0 134.2250 62.6250" />
<path d="M102.1750 76.6250
L115.1750 76.6250
" />
<path d="M102.1750 62.6250 A0.5000 0.5000 0.0 0 0 101.6750 63.1250" />
<path d="M140.2750 62.6250
L153.2750 62.6250
" />
<path d="M229.9750 63.1250
L229.9750 76.1250
" />
<path d="M216.4750 62.6250 A0.5000 0.5000 0.0 0 0 215.9750 63.1250" />
<path d="M101.6750 63.1250
L101.6750 76.1250
" />
<path d="M210.4250 76.6250 A0.5000 0.5000 0.0 0 0 210.9250 76.1250" />
<path d="M159.3250 62.6250 A0.5000 0.5000 0.0 0 0 158.8250 63.1250" />
<path d="M121.2250 76.6250
L134.2250 76.6250
" />
<path d="M196.9250 63.1250
L196.9250 76.1250
" />
<path d="M153.7750 63.1250 A0.5000 0.5000 0.0 0 0 153.2750 62.6250" />
<path d="M229.4750 76.6250 A0.5000 0.5000 0.0 0 0 229.9750 76.1250" />
<path d="M158.8250 63.1250
L158.8250 76.1250
" />
<path d="M196.9250 76.1250 A0.5000 0.5000 0.0 0 0 197.4250 76.6250" />
<path d="M134.2250 76.6250 A0.5000 0.5000 0.0 0 0 134.7250 76.1250" />
<path d="M153.2750 76.6250 A0.5000 0.5000 0.0 0 0 153.7750 76.1250" />
<path d="M215.9750 76.1250 A0.5000 0.5000 0.0 0 0 216.4750 76.6250" />
<path d="M178.3750 62.6250
L191.3750 62.6250
" />
<path d="M115.6750 63.1250 A0.5000 0.5000 0.0 0 0 115.1750 62.6250" />
<path d="M159.3250 62.6250
L172.3250 62.6250
" />
<path d="M96.1250 76.6250 A0.5000 0.5000 0.0 0 0 96.6250 76.1250" />
<path d="M121.2250 62.6250 A0.5000 0.5000 0.0 0 0 120.7250 63.1250" />
<path d="M82.6250 76.1250 A0.5000 0.5000 0.0 0 0 83.1250 76.6250" />
<path d="M229.9750 63.1250 A0.5000 0.5000 0.0 0 0 229.4750 62.6250" />
<path d="M215.9750 63.1250
L215.9750 76.1250
" />
<path d="M140.2750 76.6250
L153.2750 76.6250
" />
<path d="M115.6750 63.1250
L115.6750 76.1250
" />
<path d="M140.2750 62.6250 A0.5000 0.5000 0.0 0 0 139.7750 63.1250" />
<path d="M177.8750 63.1250
L177.8750 76.1250
" />
<path d="M120.7250 76.1250 A0.5000 0.5000 0.0 0 0 121.2250 76.6250" />
<path d="M134.7250 63.1250
L134.7250 76.1250
" />
<path d="M172.8250 63.1250 A0.5000 0.5000 0.0 0 0 172.3250 62.6250" />
<path d="M83.1250 76.6250
L96.1250 76.6250
" />
<path d="M139.7750 76.1250 A0.5000 0.5000 0.0 0 0 140.2750 76.6250" />
<path d="M153.7750 63.1250
L153.7750 76.1250
" />
<path d="M177.8750 76.1250 A0.5000 0.5000 0.0 0 0 178.3750 76.6250" />
<path d="M197.4250 76.6250
L210.4250 76.6250
" />
<path d="M178.3750 76.6250
L191.3750 76.6250
" />
<path d="M197.4250 62.6250
L210.4250 62.6250
" />
<path d="M216.4750 62.6250
L229.4750 62.6250
" />
<path d="M96.6250 63.1250
L96.6250 76.1250
" />
<path d="M139.7750 63.1250
L139.7750 76.1250
" />
<path d="M102.1750 62.6250
L115.1750 62.6250
" />
<path d="M159.3250 76.6250
L172.3250 76.6250
" />
</g>
<g style="fill:none; 
stroke:#000000; stroke-width:0.1500; stroke-opacity:1; 
stroke-linecap:round; stroke-linejoin:round;">
<text x="85.4750" y="61.2850"
textLength="3.1071" font-size="1.3333" lengthAdjust="spacingAndGlyphs"
text-anchor="middle" opacity="0" stroke-opacity="0">MT1</text>
<g class="stroked-text"><desc>MT1</desc>
<path d="M84.2845 61.2398
L84.2845 60.2398
" />
<path d="M84.2845 60.2398
L84.6179 60.9541
" />
<path d="M84.6179 60.9541
L84.9512 60.2398
" />
<path d="M84.9512 60.2398
L84.9512 61.2398
" />
<path d="M85.2845 60.2398
L85.8560 60.2398
" />
<path d="M85.5702 61.2398
L85.5702 60.2398
" />
<path d="M86.7131 61.2398
L86.1417 61.2398
" />
<path d="M86.4274 61.2398
L86.4274 60.2398
" />
<path d="M86.4274 60.2398
L86.3321 60.3827
" />
<path d="M86.3321 60.3827
L86.2369 60.4779
" />
<path d="M86.2369 60.4779
L86.1417 60.5255
" />
</g></g>
<g style="fill:none; 
stroke:#000000; stroke-width:0.1270; stroke-opacity:1; 
stroke-linecap:round; stroke-linejoin:round;">
<path d="M83.4000 62.9200
L85.9500 62.9200
" />
<path d="M83.4000 66.2200
L83.4000 62.9200
" />
<path d="M83.4000 73.0200
L83.4000 76.3200
" />
<path d="M83.4000 76.3200
L85.9500 76.3200
" />
<path d="M93.3500 62.9200
L95.9000 62.9200
" />
<path d="M93.3500 76.3200
L95.9000 76.3200
" />
<path d="M95.9000 62.9200
L95.9000 66.2200
" />
<path d="M95.9000 76.3200
L95.9000 73.0200
" />
</g>
<g style="fill:none; 
stroke:#000000; stroke-width:0.2000; stroke-opacity:1; 
stroke-linecap:round; stroke-linejoin:round;">
<circle cx="85.4500" cy="62.0200" r="0.1000" /> 
</g> 
</svg>
