**ABCDEFGHIJKLMNOPQRSTUVWXYZabcdefghijklmnopqrstuvwxyz**************************
**PARASOLID !"#$%&'()*+,-./:;<=>?@[\]^_`{|}~0123456789**************************
**PART1;
MC=unknown;
MC_MODEL=unknown;
MC_ID=unknown;
OS=unknown;
OS_RELEASE=unknown;
FRU=Parasolid 37.1.212;
APPL=Onshape;
SITE=unknown;
USER=unknown;
FORMAT=text;
GUISE=transmit;
KEY=BTGapi::writeModels_.xmt;
FILE=BTGapi::writeModels_.xmt;
DATE=2026-02-12T01:52:13 (UTC);
**PART2;
SCH=SCH_3701212_37102;
USFLD_SIZE=0;
**PART3;
**END_OF_HEADER*****************************************************************
T51 : TRANSMIT FILE created by modeller version 370121223 SCH_3701212_37102_1300
6239 0 12 36 CCCI7 lattice222 0 CCCI4 mesh1006 0 I8 polyline1008 0 CCCCCCCDI5 ow
ner1040 0 CCCI16 boundary_lattice222 0 CCCI13 boundary_mesh1006 0 I17 boundary_p
olyline1008 0 CCCA16 index_map_offset0 0 1 dA9 index_map82 0 A17 node_id_index_m
ap82 0 A20 schema_embedding_map82 0 A5 child12 0 A14 lowest_node_id0 0 1 dA16 me
sh_offset_data206 0 Z1 4864 2 3 0 0 0 0 0 0 0 1e3 1e-8 0 4 5 1 0 1 2 6 0 7 8 9 0
 0 10 11 12 0 0 0 0 0 0 0 81 255 1 2 4827 13 1 14 0 0 0 15 70 11 CI9 list_type0
 0 1 uI10 notransmit0 0 1 lCCCDCCDI12 finger_index0 0 1 dI12 finger_block1012 0
 CZ3 0 4 T1 0 0 5 20 1 16 16 13 255 6 130 0 1 0 17 0 0 18 0 51 255 7 4727 0 19 2
0 0 0 +.0803 -.0787 -.01055 0 0 -1 .0015 -1 0 0 31 255 8 4612 0 11 21 0 0 +.0803
 -.0787 -15e-5 0 0 -1 -1 0 0 .0015 29 255 9 4484 0 12 22 0 .1003 -.05835 -15e-5
 19 9 CCCCCCI5 frame230 0 CA5 owner12 0 Z10 129 0 1 18 0 23 0 V0 16 255 11 4506
 24 ?25 0 27 8 0 0 1 18 255 12 4481 30 29 0 26 9 ?1 81 1 30 4760 28 12 0 0 34 35
 32 17 255 29 0 33 31 38 12 40 27 0 36 +18 26 4472 34 39 12 37 22 ?1 81 1 34 475
9 28 26 0 0 41 30 45 17 39 0 43 42 44 26 46 50 0 48 +18 37 4463 35 38 26 47 49 ?
1 29 22 4474 0 26 49 9 .0803 -.05685 -15e-5 29 49 4465 0 37 51 22 .0988 -.05685
 -15e-5 29 51 4452 0 47 55 49 .0788 -.05835 -15e-5 18 47 4449 41 52 37 53 51 ?1
 29 55 4448 0 53 54 51 .0788 -.0787 -15e-5 18 53 4445 57 25 47 60 55 ?1 29 54 44
39 0 60 59 55 .2327 -.0588 -15e-5 18 60 4436 56 58 53 61 54 ?1 29 59 4410 0 61 6
2 54 .0988 -.05685 -.00933 18 61 4407 64 63 60 65 59 ?1 29 62 4406 0 65 67 59 .1
003 -.05835 -.00933 18 65 4403 70 69 61 66 62 ?1 29 67 4402 0 66 68 62 .2327 -.0
588 -.00933 18 66 4399 75 71 65 73 67 ?1 29 68 4398 0 73 72 67 .0788 -.0787 -.00
933 18 73 4395 74 76 66 80 68 ?1 29 72 4394 0 80 77 68 .0788 -.05835 -.00933 18
 80 4391 78 79 73 82 72 ?1 29 77 4390 0 82 85 72 .0803 -.05685 -.00933 18 82 438
7 84 42 80 81 77 ?1 29 85 4376 0 81 83 77 .0803 -.0802 -15e-5 18 81 4373 89 90 8
2 87 85 ?1 29 83 4372 0 87 88 85 .2327 -.0802 -15e-5 18 87 4369 86 93 81 95 83 ?
1 29 88 4368 0 95 91 83 .2327 -.0802 -.00933 18 95 4365 94 92 87 96 88 ?1 29 91
 4364 0 96 100 88 .0803 -.0802 -.00933 18 96 4361 98 97 95 99 91 ?1 29 100 4350
 0 99 101 91 .2342 -.0787 -15e-5 18 99 4347 105 103 96 102 100 ?1 29 101 4346 0
 102 104 100 .2342 -.0603 -15e-5 18 102 4343 106 110 99 107 101 ?1 29 104 4342 0
 107 108 101 .2342 -.0603 -.00933 18 107 4339 109 112 102 115 104 ?1 29 108 4338
 0 115 114 104 .2342 -.0787 -.00933 18 115 4335 111 113 107 116 108 ?1 29 114 32
94 0 116 117 108 .2375 -.054 -.01236 18 116 3291 119 118 115 120 114 ?1 29 117 3
290 0 120 122 114 .0755 -.054 -.01236 18 120 3287 125 124 116 121 117 ?1 29 122
 3286 0 121 123 117 .074 -.0555 -.01236 18 121 3283 130 126 120 128 122 ?1 29 12
3 3282 0 128 127 122 .074 -.0835 -.01236 18 128 3279 129 131 121 135 123 ?1 29 1
27 3268 0 135 132 123 .239 -.0555 -.01236 18 135 3265 133 134 128 137 127 ?1 29
 132 3264 0 137 140 127 .239 -.0835 -.01236 18 137 3261 139 136 135 138 132 ?1 2
9 140 3206 0 138 144 132 .2375 -.085 -.01236 18 138 3203 145 142 137 143 140 ?1
 29 144 3202 0 143 141 140 .0755 -.085 -.01236 18 143 3199 148 150 138 146 144 ?
1 29 141 2817 0 146 149 144 .1003 -.0588 -.00933 18 146 2813 147 151 143 155 141
 ?1 29 149 1236 0 155 153 141 .09628 -.05685 -.00507 18 155 1234 152 154 146 156
 149 ?1 29 153 1196 0 156 160 149 .09273 -.054 -.00151999999999997 18 156 1194 1
58 157 155 159 153 ?1 29 160 523 0 159 161 153 .078500000586493 -.05685 -15e-5 1
8 159 519 165 46 156 162 160 ?1 29 161 1076 0 162 163 160 .2344999994135 -.05684
9999999997 -15e-5 18 162 937 164 167 159 170 161 ?1 29 163 1077 0 170 169 161 .2
3615 -.05850000058649 -15e-5 18 170 938 166 168 162 171 163 ?1 29 169 1078 0 171
 172 163 .236149999999993 -.0804999994135 -15e-5 18 171 939 174 173 170 175 169
 ?1 29 172 1079 0 175 177 169 .2344999994135 -.08215 -15e-5 18 175 940 180 179 1
71 176 172 ?1 29 177 1080 0 176 178 172 .078500000586493 -.082149999999993 -15e-
5 18 176 941 185 181 175 183 177 ?1 29 178 1081 0 183 182 177 .07685 -.080499999
4135 -15e-5 18 183 942 184 186 176 190 178 ?1 29 182 1083 0 190 187 178 .07685 -
.05850000058649 -15e-5 18 190 943 188 189 183 192 182 ?1 29 187 1090 0 192 195 1
82 .1003 -.0588 -15e-5 18 192 918 194 191 190 193 187 ?1 29 195 1657 0 193 199 1
87 .09628 -.05685 -.00578 18 193 1464 200 197 192 198 195 ?1 29 199 1658 0 198 1
96 195 .09628 -.054 -.00578 18 198 1486 203 205 193 201 199 ?1 29 196 1659 0 201
 204 199 .09273 -.05685 -.00933 18 201 1468 202 206 198 210 196 ?1 29 204 1660 0
 210 208 196 .09273 -.054 -.00933 18 210 1487 207 209 201 211 204 ?1 29 208 1661
 0 211 215 204 .08629 -.05685 -.00933 18 211 1471 213 212 210 214 208 ?1 29 215
 1662 0 214 216 208 .08629 -.054 -.00933 18 214 1490 220 217 211 218 215 ?1 29 2
16 1663 0 218 219 215 .08274 -.05685 -.00578 18 218 1474 222 225 214 224 216 ?1
 29 219 1664 0 224 221 216 .08274 -.054 -.00578 18 224 1491 223 226 218 227 219
 ?1 29 221 1665 0 227 229 219 .08274 -.05685 -.00507 18 227 1477 228 230 224 232
 221 ?1 29 229 1666 0 232 235 221 .08274 -.054 -.00507 18 232 1492 234 231 227 2
33 229 ?1 29 235 1667 0 233 240 229 .08629 -.05685 -.00152 18 233 1480 236 238 2
32 237 235 ?1 29 240 1668 0 237 239 235 .08629 -.054 -.001519999999999975 18 237
 1493 241 245 233 242 240 ?1 29 239 1669 0 242 243 240 .09273 -.05685 -.00152 18
 242 1483 244 247 237 250 239 ?1 29 243 1672 0 250 249 239 .09628 -.054 -.00507
 18 250 1465 246 248 242 254 243 ?1 29 249 4164 0 254 255 243 .078500000586493 -
.05685 .00166 18 254 4000 252 253 250 251 249 ?1 29 255 4165 0 251 258 249 .0768
5 -.05850000058649 .00166 18 251 3998 260 256 254 259 255 ?1 29 258 4166 0 259 2
57 255 .07685 -.0804999994135 .00166 18 259 3996 261 265 251 263 258 ?1 29 257 4
167 0 263 262 258 .078500000586493 -.082149999999993 .00166 18 263 3994 264 266
 259 270 257 ?1 29 262 4168 0 270 268 257 .2344999994135 -.08215 .00166 18 270 3
992 267 269 263 271 262 ?1 29 268 4169 0 271 275 262 .236149999999993 -.08049999
94135 .00166 18 271 3990 272 273 270 274 268 ?1 29 275 4170 0 274 277 268 .23615
 -.05850000058649 .00166 18 274 3988 280 279 271 276 275 ?1 29 277 4171 0 276 27
8 275 .2344999994135 -.05685 .00166 18 276 3944 281 282 274 284 277 ?1 29 278 41
72 0 284 283 277 .0755 -.085 .00166 18 284 3986 285 287 276 290 278 ?1 29 283 41
73 0 290 289 278 .074 -.0835 .00166 18 290 3968 286 288 284 295 283 ?1 29 289 41
74 0 295 291 283 .074 -.0555 .00166 18 295 3984 293 292 290 294 289 ?1 29 291 41
75 0 294 296 289 .0755 -.054 .00166 18 294 3962 300 297 295 298 291 ?1 29 296 41
76 0 298 299 291 .2375 -.054 .00166 18 298 3982 302 305 294 304 296 ?1 29 299 41
77 0 304 301 296 .239 -.0555 .00166 18 304 3980 303 309 298 310 299 ?1 29 301 41
78 0 310 307 299 .239 -.0835 .00166 18 310 3978 308 306 304 313 301 ?1 29 307 41
79 0 313 0 301 .2375 -.085 .00166 18 313 3958 315 311 310 0 307 ?1 81 1 315 3959
 28 313 0 0 281 300 314 17 311 0 312 316 320 313 318 317 0 319 +15 255 312 346 0
 320 321 0 17 316 0 312 150 311 284 325 323 0 0 -17 320 0 312 311 150 138 322 32
4 0 318 +17 318 0 326 330 319 138 311 317 0 0 -16 317 3212 327 ?311 328 329 332
 0 0 1 17 319 0 326 318 306 313 335 334 0 325 -15 326 3351 0 330 331 0 17 306 0
 326 319 330 310 136 333 0 335 -17 335 0 336 337 325 310 319 334 0 339 +16 334 3
893 338 ?335 340 323 342 0 0 1 17 325 0 336 335 345 313 316 323 0 0 +15 336 4073
 0 325 344 341 17 345 0 336 325 343 284 350 346 0 316 +16 323 3890 348 ?325 334
 0 347 0 0 1 81 1 348 3892 28 323 0 0 349 338 351 30 255 347 4147 0 323 0 342 0
 +.1565 -.085 .00166 1 0 0 31 342 4146 0 334 347 355 0 +.2375 -.0835 .00166 0 0
 1 1 0 0 .0015 30 355 4145 0 340 342 352 0 +.239 -.0695 .00166 0 1 0 16 340 3896
 353 ?337 354 334 355 0 0 1 31 352 4144 0 354 355 357 0 +.2375 -.0555 .00166 0 0
 1 1 0 0 .0015 16 354 3899 360 ?359 356 340 352 0 0 1 30 357 4143 0 356 352 358
 0 +.1565 -.054 .00166 1 0 0 16 356 3854 364 ?365 362 354 357 0 0 1 31 358 4142
 0 362 357 363 0 +.0755 -.0555 .00166 0 0 1 1 0 0 .0015 16 362 3902 361 ?368 370
 356 358 0 0 1 30 363 4141 0 370 358 366 0 +.074 -.0695 .00166 0 1 0 16 370 3868
 349 ?369 346 362 363 0 0 1 31 366 4140 0 346 363 367 0 +.0755 -.0835 .00166 0 0
 1 1 0 0 .0015 16 346 3905 371 ?345 375 370 366 0 0 1 30 367 4139 0 375 366 373
 0 +.1564999999999965 -.05685 .00166 1 0 0 16 375 3908 372 ?374 376 346 367 0 0
 1 31 373 4138 0 376 367 380 0 +.2344999994135 -.0585000005864901 .00166 0 0 -1
 1 0 0 .001650000586493025 16 376 3911 378 ?377 379 375 373 0 0 1 30 380 4137 0
 379 373 381 0 +.23615 -.069499999999995 .00166 0 -1 0 16 379 3914 385 ?382 383
 376 380 0 0 1 31 381 4136 0 383 380 384 0 +.2344999994135 -.0804999994135 .0016
6 0 0 -1 1 0 0 .00165000058649302 16 383 3917 387 ?390 389 379 381 0 0 1 30 384
 4135 0 389 381 386 0 +.1564999999999965 -.08215 .00166 -1 0 0 16 389 3920 388 ?
391 392 383 384 0 0 1 31 386 4134 0 392 384 394 0 +.078500000586493 -.0804999994
135 .00166 0 0 -1 1 0 0 .00165000058649299 16 392 3923 393 ?395 397 389 386 0 0
 1 30 394 4133 0 397 386 400 0 +.07685 -.069499999999995 .00166 0 1 0 16 397 392
6 399 ?396 398 392 394 0 0 1 31 400 4132 0 398 394 405 0 +.078500000586493 -.058
50000058649 .00166 0 0 -1 1 0 0 .001650000586492985 16 398 3929 401 ?403 402 397
 400 0 0 1 30 405 3098 0 402 400 404 0 +.0788 -.05586 -.00933 0 -1 0 16 402 4392
 406 ?410 407 398 405 0 0 1 30 404 3097 0 408 405 409 0 +.1564999999999965 -.056
85 -.00933 1 0 0 16 408 4388 412 ?212 415 407 404 407 407 1 30 409 3096 0 415 40
4 414 0 +.1003 -.0579 -.00933 0 -1 0 16 415 4404 411 ?151 413 408 409 0 0 1 30 4
14 3095 0 413 409 419 0 +.16725 -.0588 -.00933 -1 0 0 16 413 4400 420 ?417 418 4
15 414 0 0 1 30 419 3094 0 418 414 416 0 +.2342 -.0695 -.00933 0 1 0 16 418 4336
 423 ?425 421 413 419 0 0 1 30 416 3093 0 421 419 424 0 +.1565 -.0802 -.00933 1
 0 0 16 421 4362 422 ?426 430 418 416 0 0 1 30 424 1640 0 430 416 428 0 +.09628
 -.052539999999999 -.00507 -1346145417358e-27 -1 -312907381349924e-29 16 430 138
9 427 ?154 429 421 424 0 0 1 30 428 1639 0 429 424 431 0 +.09273 -.0525399999999
99 -.00151999999999997 -1346145417358e-27 -1 -312907381349924e-29 16 429 1431 43
5 ?433 432 430 428 0 0 1 30 431 1638 0 432 428 434 0 +.08629 -.052539999999999 -
.00151999999999997 -1346145417358e-27 -1 -312907381349924e-29 16 432 1425 436 ?4
40 437 429 431 0 0 1 30 434 1637 0 437 431 438 0 +.08274 -.052539999999999 -.005
07 -1346145417358e-27 -1 -312907381349924e-29 16 437 1419 439 ?442 445 432 434 0
 0 1 30 438 1636 0 445 434 444 0 +.08274 -.052539999999999 -.00578 -134614541735
8e-27 -1 -312907381349924e-29 16 445 1413 441 ?443 446 437 438 0 0 1 30 444 1635
 0 446 438 447 0 +.08629 -.052539999999999 -.00933 -1346145417358e-27 -1 -312907
381349924e-29 16 446 1407 449 ?448 450 445 444 0 0 1 30 447 1634 0 450 444 452 0
 +.09273 -.052539999999999 -.00933 -1346145417358e-27 -1 -312907381349924e-29 16
 450 1401 455 ?206 454 446 447 0 0 1 30 452 1633 0 454 447 451 0 +.09628 -.05253
9999999999 -.00578 -1346145417358e-27 -1 -312907381349924e-29 16 454 1395 453 ?4
60 456 450 452 0 0 1 31 451 1632 0 456 452 458 0 -.09273 -.05685 -.00507 0 -1 0
 0 0 -1 .00355 16 456 1386 457 ?459 461 454 451 0 0 1 30 458 1631 0 461 451 465
 0 +.1564999999999965 -.05685 -.00152 1 0 3371476895864225e-45 16 461 1374 462 ?
463 464 456 458 0 0 1 31 465 1630 0 464 458 467 0 -.08629 -.05685 -.00507 0 -1 0
 0 0 -1 .00355 16 464 1362 470 ?469 466 461 465 0 0 1 30 467 1629 0 466 465 468
 0 +.08274 -.05685 -.01236 0 0 1 16 466 1350 474 ?475 472 464 467 0 0 1 31 468 1
628 0 472 467 473 0 -.08629 -.05685 -.00578 0 -1 0 0 0 -1 .00355 16 472 1338 471
 ?478 480 466 468 0 0 1 31 473 1626 0 480 468 476 0 -.09273 -.05685 -.00578 0 -1
 0 0 0 -1 .00355 16 480 1314 479 ?477 481 472 473 0 0 1 30 476 1625 0 481 473 48
5 0 +.09628 -.05685 -.01236 0 0 -1 16 481 1302 483 ?482 484 480 476 0 0 1 30 485
 1053 0 484 476 486 0 +.0788 -.05586 -15e-5 0 1 0 16 484 4446 490 ?488 487 481 4
85 0 0 1 30 486 1052 0 487 485 489 0 +.1565 -.0802 -15e-5 -1 0 0 16 487 4370 491
 ?495 492 484 486 0 0 1 30 489 1051 0 492 486 493 0 +.2342 -.0695 -15e-5 0 -1 0
 16 492 4344 494 ?497 500 487 489 0 0 1 30 493 1050 0 500 489 499 0 +.16725 -.05
88 -15e-5 1 0 0 16 500 764 496 ?498 501 492 493 0 0 1 30 499 1049 0 501 493 502
 0 +.1003 -.0579 -15e-5 0 1 0 16 501 815 504 ?36 503 500 499 0 0 1 30 502 1041 0
 503 499 505 0 +.1003 -.0588 -.01055 0 0 1 16 503 812 507 ?191 510 501 502 0 0 1
 30 505 1035 0 510 502 509 0 +.07685 -.069499999999995 -15e-5 0 1 0 16 510 881 5
06 ?508 515 503 505 0 0 1 31 509 1034 0 515 505 511 0 +.078500000586493 -.080499
9994135 -15e-5 0 0 -1 -1 0 0 .00165000058649299 16 515 878 513 ?512 514 510 509
 0 0 1 30 511 1033 0 514 509 516 0 +.1564999999999965 -.08215 -15e-5 -1 0 0 16 5
14 875 520 ?517 518 515 511 0 0 1 31 516 1032 0 518 511 519 0 +.2344999994135 -.
0804999994135 -15e-5 0 0 -1 -1 0 0 .00165000058649302 16 518 872 522 ?525 524 51
4 516 0 0 1 30 519 1031 0 524 516 521 0 +.23615 -.069499999999995 -15e-5 0 -1 0
 16 524 869 523 ?529 530 518 519 0 0 1 31 521 1030 0 530 519 527 0 +.23449999941
35 -.0585000005864901 -15e-5 0 0 -1 -1 0 0 .001650000586493025 16 530 866 528 ?5
26 533 524 521 0 0 1 30 527 1029 0 533 521 535 0 +.1564999999999965 -.05685 -15e
-5 1 0 0 16 533 863 531 ?534 50 530 527 50 50 1 30 535 10 0 532 527 536 0 +.074
 -.0695 -.01236 0 1 0 16 532 3280 540 ?538 324 50 535 0 0 1 30 536 15 0 324 535
 537 0 +.1565 -.085 -.01236 1 0 0 16 324 3200 539 ?320 541 532 536 0 0 1 30 537
 20 0 541 536 545 0 +.239 -.0695 -.01236 0 1 0 16 541 3262 543 ?542 544 324 537
 0 0 1 30 545 25 0 544 537 546 0 +.1565 -.054 -.01236 1 0 0 16 544 3288 550 ?547
 548 541 545 0 0 1 30 546 362 0 548 545 549 0 +.078500000586493 -.05685 -.01236
 0 0 1 16 548 520 552 ?253 555 544 546 0 0 1 30 549 363 0 555 546 554 0 +.07685
 -.05850000058649 -.01236 0 0 1 16 555 510 551 ?256 553 548 549 0 0 1 30 554 364
 0 553 549 556 0 +.07685 -.0804999994135 -.01236 0 0 1 16 553 542 557 ?265 559 5
55 554 0 0 1 30 556 365 0 559 554 558 0 +.078500000586493 -.082149999999993 -.01
236 0 0 1 16 559 562 560 ?266 562 553 556 0 0 1 30 558 366 0 562 556 565 0 +.234
4999994135 -.08215 -.01236 0 0 1 16 562 582 564 ?269 561 559 558 0 0 1 30 565 36
7 0 561 558 563 0 +.236149999999993 -.0804999994135 -.01236 0 0 1 16 561 602 570
 ?273 566 562 565 0 0 1 30 563 368 0 566 565 568 0 +.23615 -.05850000058649 -.01
236 0 0 1 16 566 622 567 ?279 569 561 563 0 0 1 30 568 369 0 569 563 571 0 +.234
4999994135 -.05685 -.01236 0 0 1 16 569 642 575 ?282 572 566 568 0 0 1 31 571 52
6 0 572 568 573 0 +.078500000586493 -.05850000058649 -15e-5 0 0 -1 -1 0 0 .00165
0000586492985 16 572 524 574 ?577 580 569 571 0 0 1 31 573 1200 0 580 571 579 0
 -.09273 -.054 -.00507 0 -1 0 0 0 -1 .00355 16 580 1198 576 ?248 578 572 573 0 0
 1 30 579 1204 0 578 573 584 0 +.1565 -.054 -.001519999999999975 1 0 33714768958
64225e-45 16 578 1202 585 ?582 583 580 579 0 0 1 31 584 1208 0 583 579 581 0 -.0
8629 -.054 -.00507 0 -1 0 0 0 -1 .00355 16 583 1206 588 ?245 590 578 584 0 0 1 3
0 581 1212 0 590 584 586 0 +.08274 -.054 -.01236 0 0 1 16 590 1210 589 ?231 587
 583 581 0 0 1 31 586 1216 0 587 581 591 0 -.08629 -.054 -.00578 0 -1 0 0 0 -1 .
00355 16 587 1214 595 ?226 593 590 586 0 0 1 30 591 1220 0 593 586 592 0 +.1565
 -.054 -.00933 -1 0 -3371476895864225e-45 16 593 1218 594 ?217 596 587 591 0 0 1
 31 592 1224 0 596 591 600 0 -.09273 -.054 -.00578 0 -1 0 0 0 -1 .00355 16 596 1
222 598 ?209 597 593 592 0 0 1 30 600 1227 0 597 592 599 0 +.09628 -.054 -.01236
 0 0 -1 16 597 1225 601 ?205 329 596 600 0 0 1 30 599 3209 0 329 600 332 0 -.075
5 -.085 -.01236 0 0 1 16 329 3207 605 ?150 317 597 599 0 0 1 30 332 3214 0 317 5
99 602 0 +.2375 -.085 -.01236 0 0 1 30 602 3271 0 328 332 603 0 +.239 -.0555 .00
151 0 0 1 16 328 3269 604 ?309 333 317 602 0 0 1 30 603 3276 0 333 602 607 0 -.2
39 -.0835 -.01236 0 0 1 16 333 3274 610 ?136 609 328 603 0 0 1 31 607 3297 0 609
 603 606 0 -.0755 -.0555 -.01236 0 0 1 1 0 0 .0015 16 609 3295 608 ?124 611 333
 607 0 0 1 31 606 3302 0 611 607 612 0 -.0755 -.0835 -.01236 0 0 1 1 0 0 .0015 1
6 611 3300 614 ?131 613 609 606 0 0 1 31 612 3307 0 613 606 615 0 -.2375 -.0555
 -.01236 0 0 1 1 0 0 .0015 16 613 3305 617 ?134 620 611 612 0 0 1 31 615 3312 0
 620 612 619 0 -.2375 -.0835 -.01236 0 0 1 1 0 0 .0015 16 620 3310 616 ?142 618
 613 615 0 0 1 30 619 3317 0 618 615 625 0 +.0755 -.054 -.01236 0 0 1 16 618 331
5 621 ?297 623 620 619 0 0 1 30 625 3322 0 623 619 622 0 -.2375 -.054 -.01236 0
 0 1 16 623 3320 624 ?118 626 618 625 0 0 1 30 622 3327 0 626 625 630 0 -.074 -.
0555 -.01236 0 0 1 16 626 3325 627 ?126 628 623 622 0 0 1 30 630 3332 0 628 622
 629 0 +.074 -.0835 .00151 0 0 1 16 628 3330 632 ?288 635 626 630 0 0 1 30 629 4
353 0 635 630 634 0 -.2342 -.0603 -.00933 0 0 1 16 635 4351 631 ?112 633 628 629
 0 0 1 30 634 4358 0 633 629 639 0 +.2342 -.0787 -15e-5 0 0 1 16 633 4356 640 ?6
37 638 635 634 0 0 1 30 639 4379 0 638 634 636 0 +.0803 -.0802 -15e-5 0 0 1 16 6
38 4377 643 ?645 641 633 639 0 0 1 30 636 4384 0 641 639 644 0 -.2327 -.0802 -.0
0933 0 0 1 16 641 4382 642 ?92 646 638 636 0 0 1 31 644 4413 0 646 636 650 0 +.0
803 -.0787 -.00933 -3371476895864225e-45 -312907381349924e-29 1 0 -1 -3129073813
49924e-29 .0015 16 646 4411 648 ?97 647 641 644 0 0 1 31 650 4418 0 647 644 649
 0 +.0988 -.05835 -.00933 -3371476895864225e-45 -312907381349924e-29 1 0 -1 -312
907381349924e-29 .0015 16 647 4416 651 ?63 655 646 650 0 0 1 31 649 4423 0 655 6
50 653 0 +.0803 -.05835 -.00933 -3371476895864225e-45 -312907381349924e-29 1 0 -
1 -312907381349924e-29 .0015 16 655 4421 652 ?79 654 647 649 0 0 1 31 653 4428 0
 654 649 656 0 +.2327 -.0603 -.00933 -3371476895864225e-45 -312907381349924e-29
 1 0 -1 -312907381349924e-29 .0015 16 654 4426 660 ?71 657 655 653 0 0 1 31 656
 4433 0 657 653 658 0 +.2327 -.0787 -.00933 -3371476895864225e-45 -3129073813499
24e-29 1 0 -1 -312907381349924e-29 .0015 16 657 4431 659 ?113 662 654 656 0 0 1
 30 658 4442 0 662 656 665 0 +.2327 -.0588 -15e-5 0 0 1 16 662 4440 664 ?661 663
 657 658 0 0 1 30 665 4455 0 663 658 666 0 -.0788 -.0787 -.00933 0 0 1 16 663 44
53 667 ?76 669 662 665 0 0 1 30 666 4460 0 669 665 668 0 +.0788 -.05835 -15e-5 0
 0 1 16 669 4458 670 ?672 675 663 666 0 0 1 30 668 4469 0 675 666 674 0 +.0988 -
.05685 -.01236 0 0 1 16 675 4467 671 ?673 680 669 668 0 0 1 30 674 4475 0 680 66
8 676 0 -.0803 -.05685 -.00933 0 0 1 16 680 4473 678 ?42 677 675 674 0 0 1 30 67
6 4487 0 677 674 679 0 -.1003 -.05835 -.01055 0 0 1 16 677 4485 681 ?69 685 680
 676 0 0 1 31 679 4608 0 685 676 682 0 +.2327 -.0787 -15e-5 0 0 -1 -1 0 0 .0015
 16 685 4490 683 ?93 684 677 679 0 0 1 31 682 4609 0 684 679 687 0 +.2327 -.0603
 -15e-5 0 0 -1 -1 0 0 .0015 16 684 4494 690 ?110 689 685 682 0 0 1 31 687 4610 0
 689 682 21 0 +.0803 -.05835 -15e-5 0 0 -1 -1 0 0 .0015 16 689 4498 686 ?48 27 6
84 687 0 0 1 31 21 4611 0 27 687 8 0 +.0988 -.05835 -15e-5 0 0 -1 -1 0 0 .0015 1
6 27 4502 688 ?29 11 689 21 0 0 1 81 1 688 4779 28 27 0 0 686 690 694 80 7 CCCCC
DI12 legal_owners0 17 1 lCZ1 28 695 692 9000 0 0 0 0 3 6 0 0 0 FFTFTFTTFFFFFFFFF
1 81 1 686 4778 28 689 0 0 74 688 693 81 1 690 4780 28 684 0 0 688 683 691 82 25
5 3 694 47 1 1 81 1 683 4781 28 685 0 0 690 24 698 82 3 691 47 2 1 81 1 24 4782
 28 11 0 0 683 652 700 82 3 698 47 3 1 81 1 652 4783 28 655 0 0 24 670 696 82 3
 700 47 4 1 81 1 670 4784 28 669 0 0 652 678 699 82 3 696 47 5 1 81 1 678 4785 2
8 680 0 0 670 651 697 82 3 699 47 6 1 81 1 651 4786 28 647 0 0 678 681 701 82 3
 697 47 7 1 81 1 681 4787 28 677 0 0 651 671 705 82 3 701 47 8 1 81 1 671 4788 2
8 675 0 0 681 660 703 82 3 705 47 9 1 81 1 660 4789 28 654 0 0 671 664 702 82 3
 703 47 10 1 81 1 664 4790 28 662 0 0 660 631 704 82 3 702 47 11 1 81 1 631 4791
 28 635 0 0 664 659 706 82 3 704 47 12 1 81 1 659 4792 28 657 0 0 631 640 710 82
 3 706 47 13 1 81 1 640 4793 28 633 0 0 659 642 708 82 3 710 47 14 1 81 1 642 47
94 28 641 0 0 640 648 707 82 3 708 47 15 1 81 1 648 4795 28 646 0 0 642 643 709
 82 3 707 47 16 1 81 1 643 4796 28 638 0 0 648 667 711 82 3 709 47 17 1 81 1 667
 4797 28 663 0 0 643 496 715 82 3 711 47 18 1 81 1 496 4798 28 500 0 0 667 494 7
12 82 3 715 47 19 1 81 1 494 4799 28 492 0 0 496 491 713 82 3 712 47 20 1 81 1 4
91 4800 28 487 0 0 494 490 714 82 3 713 47 21 1 81 1 490 4801 28 484 0 0 491 504
 717 82 3 714 47 22 1 81 1 504 4802 28 501 0 0 490 531 720 82 3 717 47 23 1 81 1
 531 4803 28 533 0 0 504 719 716 82 3 720 47 24 1 81 1 719 4804 28 50 0 0 531 42
0 718 82 3 716 47 25 1 16 50 851 719 ?39 532 533 527 533 533 1 81 1 420 4805 28
 413 0 0 719 423 721 82 3 718 47 26 1 81 1 423 4806 28 418 0 0 420 422 722 82 3
 721 47 27 1 81 1 422 4807 28 421 0 0 423 406 724 82 3 722 47 28 1 81 1 406 4808
 28 402 0 0 422 411 723 82 3 724 47 29 1 81 1 411 4809 28 415 0 0 406 725 727 82
 3 723 47 30 1 81 1 725 4810 28 407 0 0 411 412 730 82 3 727 47 31 1 16 407 2933
 725 ?729 408 402 404 408 408 1 81 1 412 4811 28 408 0 0 725 726 728 82 3 730 47
 32 1 81 1 726 4812 28 735 0 731 412 733 732 82 3 728 47 33 1 14 255 735 4673 73
1 ?734 736 740 6 737 -0 0 734 736 23 81 1 731 4862 738 735 726 0 739 742 745 81
 1 733 4813 28 734 0 742 726 744 741 82 3 732 47 0 2 14 734 4694 742 ?19 735 743
 6 20 -0 0 19 735 23 81 1 742 4863 738 734 733 0 731 749 750 81 1 744 4814 28 73
6 0 739 733 747 748 82 3 741 47 1 2 14 736 4652 739 ?735 746 753 6 755 -0 0 735
 746 23 81 1 739 4861 738 736 744 0 751 731 754 81 1 747 4815 28 746 0 751 744 7
52 756 82 3 748 47 2 2 14 746 4631 751 ?736 344 760 6 758 -0 0 736 344 23 81 1 7
51 4860 738 746 747 0 757 739 759 81 1 752 4816 28 19 0 749 747 761 765 82 3 756
 47 3 2 14 19 4715 749 ?0 734 763 6 7 -0 0 0 734 23 81 1 749 4864 738 19 752 0 7
42 0 762 81 1 761 4817 28 764 0 766 752 770 767 82 3 765 47 4 2 14 764 1004 766
 ?768 769 33 6 772 -0 0 768 769 23 81 1 766 4843 738 764 761 0 775 774 771 81 1
 770 4818 28 773 0 776 761 777 779 82 3 767 47 5 2 14 773 1581 776 ?778 780 782
 6 785 +0 0 778 780 23 81 1 776 4849 738 773 770 0 784 781 783 81 1 777 4819 28
 790 0 786 770 788 787 82 3 779 47 6 2 14 790 980 786 ?789 17 791 6 795 +0 0 789
 17 23 81 1 786 4829 738 790 777 0 792 793 794 81 1 788 4820 28 797 0 800 777 79
9 796 82 3 787 47 7 2 14 797 976 800 ?798 804 805 6 802 +0 0 798 804 23 81 1 800
 4846 738 797 788 0 803 801 808 81 1 799 4821 28 804 0 803 788 810 806 82 3 796
 47 8 2 14 804 972 803 ?797 768 809 6 807 +0 0 797 768 23 81 1 803 4845 738 804
 799 0 774 800 811 81 1 810 4822 28 768 0 774 799 815 813 82 3 806 47 9 2 14 768
 968 774 ?804 764 812 6 814 +0 0 804 764 23 81 1 774 4844 738 768 810 0 766 803
 816 81 1 815 4823 28 789 0 793 810 820 818 82 3 813 47 10 2 14 789 984 793 ?817
 790 819 6 821 -0 0 817 790 23 81 1 793 4830 738 789 815 0 786 825 822 81 1 820
 4824 28 17 0 792 815 0 823 82 3 818 47 11 2 14 17 341 792 ?790 0 43 6 824 +0 0
 790 0 23 81 1 792 4828 738 17 820 0 0 786 827 82 3 823 47 12 2 80 1 738 0 830 8
001 0 0 0 0 3 5 0 0 0 FFFFTFTFFFFFFFFFF2 83 255 3 827 .917647058823529 .91764705
8823529 .917647058823529 79 255 15 830 SDL/TYSA_COLOUR15 43 1232 0 39 17 0 50 25
5 824 357 0 17 829 826 0 +.1564999999999965 -.05685 -.01236 0 -1 0 0 0 -1 13 23
 374 0 0 0 0 0 0 10 17 51 829 356 0 817 828 824 0 -.2344999994135 -.058500000586
4901 -.01236 0 0 1 .001650000586493025 1 0 0 50 826 358 0 831 824 832 0 +.1565 -
.054 -.01236 0 -1 0 0 0 -1 14 831 343 834 ?769 833 835 6 826 -0 0 769 833 23 50
 832 359 0 833 826 837 0 +.239 -.0695 -.01236 1 0 0 0 0 -1 14 833 345 840 ?831 3
21 839 6 832 +0 0 831 321 23 50 837 360 0 321 832 836 0 +.1565 -.085 -.01236 0 -
1 0 0 0 -1 14 321 347 838 ?833 845 312 6 837 +0 0 833 845 23 50 836 361 0 845 83
7 841 0 +.074 -.0695 -.01236 1 0 0 0 0 -1 14 845 349 843 ?321 842 844 6 836 -0 0
 321 842 23 51 841 3362 0 331 836 846 0 +.2375 -.0835 -.01236 0 0 1 .0015 1 0 0
 14 331 3350 850 ?847 848 326 6 841 +0 0 847 848 23 51 846 3383 0 847 841 849 0
 +.2375 -.0555 -.01236 0 0 -1 .0015 -1 0 0 14 847 3371 852 ?855 331 854 6 846 +0
 0 855 331 23 51 849 3404 0 855 846 851 0 +.0755 -.0835 -.01236 0 0 -1 .0015 -1
 0 0 14 855 3392 853 ?859 847 860 6 849 +0 0 859 847 23 51 851 3425 0 859 849 75
8 0 +.0755 -.0555 -.01236 0 0 1 .0015 1 0 0 14 859 3413 857 ?344 855 858 6 851 +
0 0 344 855 23 51 758 4643 0 746 851 755 0 +.2327 -.0787 -.01055 0 0 -1 .0015 -1
 0 0 51 755 4664 0 736 758 737 0 +.2327 -.0603 -.01055 0 0 -1 .0015 -1 0 0 51 73
7 4685 0 735 755 20 0 +.0803 -.05835 -.01055 0 0 -1 .0015 -1 0 0 51 20 4706 0 73
4 737 7 0 +.0988 -.05835 -.01236 0 0 1 .0015 1 0 0 81 1 857 4858 738 859 856 0 8
53 757 863 14 344 4070 757 ?746 859 336 6 865 +0 0 746 859 23 15 858 3414 0 861
 859 0 17 861 0 858 292 864 121 124 609 0 0 -17 292 0 858 862 861 295 126 626 0
 368 -17 864 0 858 861 862 120 297 618 0 0 -17 124 0 866 547 538 120 861 609 0 8
70 +15 866 6 0 868 769 0 17 547 0 866 134 124 116 870 544 0 867 +17 538 0 866 12
4 131 121 869 532 0 861 +17 870 0 871 297 118 120 547 544 0 864 -15 871 342 0 29
7 831 0 17 297 0 871 365 870 294 864 618 0 862 +17 118 0 871 870 365 116 305 623
 0 547 +17 365 0 871 118 297 298 875 356 0 0 +17 305 0 854 873 867 298 118 623 0
 359 -15 854 3372 0 867 847 0 17 873 0 854 872 305 304 359 354 0 0 -17 867 0 854
 305 872 116 134 613 0 0 -17 359 0 336 875 337 298 873 354 0 365 +17 875 0 336 3
68 359 294 365 356 0 0 -17 337 0 336 359 335 304 339 340 0 873 +17 339 0 839 136
 309 310 337 340 0 0 -15 839 344 0 309 833 0 17 136 0 839 542 339 137 306 333 0
 868 +17 309 0 839 339 542 304 872 328 0 337 +17 542 0 839 309 136 135 868 541 0
 872 +17 872 0 854 867 873 135 309 328 0 0 -17 868 0 866 142 134 137 542 541 0 3
30 -17 142 0 866 322 868 138 330 620 0 320 +17 134 0 866 868 547 135 867 613 0 5
42 +17 330 0 326 306 318 137 142 620 0 0 -17 322 0 866 131 142 143 320 324 0 874
 -17 131 0 866 538 322 128 874 611 0 869 +17 874 0 860 287 876 143 131 611 0 0 -
15 860 3393 0 874 855 0 17 287 0 860 350 874 284 150 329 0 345 -17 876 0 860 874
 350 128 288 628 0 0 -17 350 0 860 876 287 290 345 346 0 343 -17 288 0 844 369 8
69 290 876 628 0 350 +15 844 348 0 869 845 0 17 369 0 844 126 288 295 343 370 0
 0 +17 869 0 844 288 126 128 538 532 0 876 -17 126 0 844 869 369 121 292 626 0 5
38 +17 343 0 336 345 368 290 369 370 0 0 -17 368 0 336 343 875 295 862 362 0 369
 +17 862 0 858 864 292 294 368 362 0 875 -17 150 0 312 320 316 143 287 329 0 322
 +14 769 1 775 ?764 831 866 6 880 -0 0 764 831 23 81 1 775 4842 738 769 877 0 83
4 766 878 50 880 3 0 769 814 879 0 +.1565 -.0695 -.01236 0 0 1 1 0 0 50 814 1012
 0 768 807 880 0 +.0788 -.05586 -.01055 1 0 0 0 0 -1 51 879 350 0 842 880 882 0
 -.078500000586493 -.05850000058649 -.01236 0 0 1 .001650000586492985 1 0 0 14 8
42 527 885 ?845 884 881 6 879 +0 0 845 884 23 50 882 351 0 884 879 883 0 +.07685
 -.069499999999995 -.01236 1 0 0 0 0 -1 14 884 548 886 ?842 887 889 6 882 +0 0 8
42 887 23 51 883 352 0 887 882 888 0 -.078500000586493 -.0804999994135 -.01236 0
 0 1 .00165000058649299 1 0 0 14 887 568 890 ?884 892 895 6 883 +0 0 884 892 23
 50 888 353 0 892 883 894 0 +.1564999999999965 -.08215 -.01236 0 1 0 0 0 1 14 89
2 588 891 ?887 893 900 6 888 +0 0 887 893 23 51 894 354 0 893 888 828 0 -.234499
9994135 -.0804999994135 -.01236 0 0 1 .00165000058649302 1 0 0 14 893 608 896 ?8
92 898 897 6 894 +0 0 892 898 23 50 828 355 0 898 894 829 0 +.23615 -.0694999999
99995 -.01236 -1 0 0 0 0 1 14 898 628 899 ?893 817 901 6 828 +0 0 893 817 23 81
 1 899 4832 738 898 905 0 825 896 902 14 817 648 825 ?898 789 903 6 829 +0 0 898
 789 23 15 901 336 0 904 898 0 17 904 0 901 529 907 170 279 566 0 0 -17 529 0 90
1 273 904 171 168 524 0 910 +17 907 0 901 904 273 274 382 379 0 0 -17 279 0 903
 909 526 274 904 566 0 377 +15 903 338 0 906 817 0 17 909 0 903 906 279 276 377
 376 0 374 -17 526 0 903 279 906 170 167 530 0 904 +17 377 0 341 382 374 274 909
 376 0 907 +15 341 4074 0 374 344 0 17 382 0 341 390 377 271 907 379 0 908 +17 3
74 0 341 377 403 276 914 375 0 0 +17 403 0 341 374 396 254 915 398 0 914 +17 914
 0 43 44 282 254 374 375 0 0 -17 44 0 43 39 914 159 253 548 0 0 -17 282 0 43 914
 534 276 906 569 0 909 +17 534 0 43 282 673 162 38 533 0 906 +17 906 0 903 526 9
09 162 282 569 0 0 -17 673 0 43 534 729 37 912 675 0 0 +17 38 0 33 29 167 37 534
 533 0 40 -15 33 959 0 46 764 0 17 167 0 33 38 168 162 526 530 0 534 -17 40 0 74
3 912 913 37 29 27 0 673 -15 743 4695 0 911 734 0 17 912 0 743 911 40 61 673 675
 0 0 -17 913 0 743 40 911 12 69 677 0 0 -17 911 0 743 913 912 65 63 647 0 0 -17
 69 0 819 151 36 65 913 677 0 918 +15 819 2819 0 36 789 0 17 151 0 819 191 69 14
6 918 415 0 417 +17 36 0 819 69 191 12 31 501 0 913 +17 918 0 782 63 417 65 151
 415 0 911 -15 782 1532 0 426 773 0 17 63 0 782 920 918 61 911 647 0 729 +17 417
 0 782 918 71 146 916 413 0 919 +17 71 0 782 417 425 66 917 654 0 916 +17 916 0
 791 661 919 66 417 413 0 921 -17 919 0 791 916 925 146 191 503 0 0 -15 791 983
 0 916 790 0 17 925 0 791 919 661 192 498 500 0 0 -17 191 0 819 36 151 192 919 5
03 0 31 +17 31 0 33 498 29 192 36 501 0 925 -17 498 0 33 110 31 60 925 500 0 0 +
17 110 0 33 497 498 102 58 684 0 923 +17 497 0 33 93 110 99 923 492 0 0 +17 58 0
 753 921 922 60 110 684 0 661 -17 923 0 805 112 637 102 497 492 0 922 -15 805 28
52 0 924 797 0 17 112 0 805 924 923 107 922 635 0 425 +17 637 0 805 923 924 99 9
26 633 0 497 +17 922 0 753 58 917 102 112 635 0 0 -15 753 4653 0 917 736 0 17 91
7 0 753 922 921 107 71 654 0 0 -17 921 0 753 917 58 66 661 662 0 0 -17 661 0 791
 925 916 60 921 662 0 498 +17 924 0 805 637 112 115 425 418 0 926 -17 926 0 760
 930 103 115 637 633 0 0 -15 760 4632 0 930 746 0 17 930 0 760 928 926 95 113 65
7 0 0 -17 103 0 760 926 928 99 93 685 0 637 -17 928 0 760 103 930 87 92 641 0 0
 -17 93 0 33 495 497 87 103 685 0 927 +17 495 0 33 25 93 81 927 487 0 0 +17 927
 0 809 92 645 87 495 487 0 928 -15 809 2862 0 927 804 0 17 92 0 809 929 927 95 9
28 641 0 426 +17 645 0 809 927 929 81 931 638 0 495 +17 929 0 809 645 92 96 426
 421 0 931 -17 931 0 763 935 90 96 645 638 0 0 -15 763 4716 0 935 19 0 17 935 0
 763 932 931 73 97 646 0 0 -17 90 0 763 931 932 81 25 11 0 645 -17 932 0 763 90
 935 53 76 663 0 0 -17 25 0 33 488 495 53 90 11 0 933 +17 488 0 33 48 25 47 933
 484 0 0 +17 933 0 812 76 672 53 488 484 0 932 -15 812 2867 0 934 768 0 17 76 0
 812 934 933 73 932 663 0 410 +17 672 0 812 933 934 47 937 669 0 488 +17 934 0 8
12 672 76 80 410 402 0 937 -17 937 0 740 940 52 80 672 669 0 0 -15 740 4674 0 94
0 735 0 17 940 0 740 939 937 82 79 655 0 0 -17 52 0 740 937 939 47 48 689 0 672
 -17 939 0 740 52 940 26 42 680 0 0 -17 48 0 33 46 488 26 52 689 0 939 +17 46 0
 33 189 48 159 39 50 0 577 -17 189 0 33 186 46 190 577 572 0 508 -17 577 0 881 2
53 936 159 189 572 0 44 +15 881 326 0 936 842 0 17 253 0 881 915 577 254 44 548
 0 403 +17 936 0 881 577 915 190 256 555 0 0 -17 915 0 881 936 253 251 403 398 0
 0 -17 256 0 889 938 508 251 936 555 0 396 +15 889 328 0 941 884 0 17 938 0 889
 941 256 259 396 397 0 0 -17 508 0 889 256 941 190 186 510 0 936 +17 396 0 341 4
03 395 251 938 397 0 915 +17 395 0 341 396 391 259 942 392 0 938 +17 391 0 341 3
95 390 263 944 389 0 942 +17 942 0 895 943 265 263 395 392 0 0 -15 895 330 0 943
 887 0 17 943 0 895 512 942 176 266 559 0 0 -17 265 0 895 942 512 259 941 553 0
 395 +17 512 0 895 265 943 183 181 515 0 941 +17 941 0 889 508 938 183 265 553 0
 0 -17 181 0 33 179 186 176 512 515 0 517 -17 179 0 33 173 181 175 517 514 0 525
 -17 186 0 33 181 189 183 508 510 0 512 -17 517 0 900 266 945 176 179 514 0 943
 +15 900 332 0 945 892 0 17 266 0 900 944 517 263 943 559 0 391 +17 945 0 900 51
7 944 175 269 562 0 0 -17 944 0 900 945 266 270 391 389 0 0 -17 269 0 897 908 52
5 270 945 562 0 390 +15 897 334 0 910 893 0 17 908 0 897 910 269 271 390 383 0 0
 -17 525 0 897 269 910 175 173 518 0 945 +17 390 0 341 391 382 270 908 383 0 944
 +17 910 0 897 525 908 171 273 561 0 0 -17 173 0 33 168 179 171 525 518 0 529 -1
7 168 0 33 167 173 170 529 524 0 526 -17 273 0 901 907 529 271 910 561 0 382 +17
 42 0 43 212 39 82 939 680 0 947 +17 212 0 43 478 42 211 947 408 0 950 +17 947 0
 782 79 448 82 212 408 0 940 -17 79 0 782 410 947 80 940 655 0 934 +17 448 0 782
 947 217 211 949 446 0 0 +17 217 0 782 448 946 214 948 593 0 949 +17 949 0 955 2
26 950 214 448 446 0 951 -15 955 1540 0 949 778 0 17 226 0 955 443 949 224 951 5
87 0 953 +17 950 0 955 949 443 211 478 472 0 448 -17 951 0 835 948 952 214 226 5
87 0 0 -15 835 1226 0 954 831 871 17 948 0 835 956 951 210 217 593 0 0 -17 952 0
 835 951 960 224 231 590 0 0 -17 960 0 835 952 957 232 245 583 0 0 -17 231 0 958
 442 953 232 952 590 0 959 +15 958 1548 0 953 962 0 17 442 0 958 225 231 227 959
 437 0 475 +17 953 0 958 231 225 224 443 445 0 952 -17 959 0 965 245 230 232 442
 437 0 960 -15 965 1556 0 959 964 0 17 245 0 965 440 959 237 960 583 0 961 +17 2
30 0 965 959 440 227 469 464 0 442 -17 440 0 965 230 245 233 961 432 0 469 +17 4
69 0 43 463 475 233 230 464 0 0 +17 463 0 43 459 469 242 238 461 0 0 +17 475 0 4
3 469 478 227 225 466 0 0 +17 478 0 43 475 212 218 950 472 0 0 +17 225 0 958 953
 442 218 475 466 0 443 -17 443 0 955 950 226 218 953 445 0 478 +17 459 0 43 482
 463 155 247 456 0 0 +17 238 0 963 961 433 233 463 461 0 440 -15 963 1564 0 961
 969 0 17 961 0 963 582 238 237 440 432 0 957 -17 433 0 963 238 582 242 157 429
 0 463 +17 582 0 963 433 961 156 957 578 0 970 +17 157 0 967 248 247 156 433 429
 0 582 -15 967 1572 0 157 848 0 17 248 0 967 154 157 250 970 580 0 968 +17 247 0
 967 157 154 242 459 456 0 433 -17 154 0 967 247 248 155 968 430 0 966 +17 968 0
 973 205 966 250 154 430 0 954 -17 966 0 973 968 460 155 482 481 0 459 -15 973 1
516 0 968 798 0 17 460 0 973 966 205 193 975 454 0 482 +17 482 0 43 477 459 193
 966 481 0 0 +17 477 0 43 729 482 201 197 480 0 920 +17 729 0 43 673 477 61 920
 407 0 912 +17 197 0 971 975 206 193 477 480 0 460 -17 920 0 782 946 63 201 729
 407 0 0 -17 946 0 782 217 920 210 206 450 0 948 -17 206 0 971 197 209 201 946 4
50 0 477 +15 971 1524 0 975 780 0 17 209 0 971 206 975 210 956 596 0 946 +17 975
 0 971 209 197 198 460 454 0 956 -17 956 0 835 954 948 198 209 596 0 0 -17 954 0
 835 970 956 250 205 597 0 0 -17 970 0 835 957 954 156 248 580 0 0 -17 205 0 973
 460 968 198 954 597 0 975 +17 957 0 835 960 970 237 582 578 0 0 -14 780 1577 78
4 ?773 798 971 6 974 +0 0 773 798 23 81 1 784 4848 738 780 972 0 801 776 976 14
 798 1573 801 ?780 797 973 6 980 +0 0 780 797 23 51 974 1616 0 780 785 980 0 -.0
9273 -.052539999999999 -.00578 -1346145417358e-27 -1 -312907381349924e-29 .00355
 0 312907381349924e-29 -1 50 785 1617 0 773 978 974 0 +.08951 -.052539999999999
 -.00933 -3371476895864225e-45 -312907381349924e-29 1 0 -1 -312907381349924e-29
 50 980 1615 0 798 974 772 0 +.09628 -.052539999999999 -.005425 -1 1346145417358
e-27 0 -1346145417358e-27 -1 0 50 772 1020 0 764 980 821 0 +.1565 -.06922 -15e-5
 0 0 -1 1 0 0 50 821 1016 0 789 772 795 0 +.1003 -.0579 -.01055 1 0 0 0 0 -1 50
 795 1015 0 790 821 802 0 +.16725 -.0588 -.01055 0 -1 0 0 0 -1 50 802 1014 0 797
 795 807 0 +.2342 -.0695 -.01055 -1 0 0 0 0 1 50 807 1013 0 804 802 814 0 +.1565
 -.0802 -.01055 0 1 0 0 0 1 51 978 1618 0 778 977 785 0 -.08629 -.05253999999999
9 -.00578 -1346145417358e-27 -1 -312907381349924e-29 .00355 0 312907381349924e-2
9 -1 14 778 1585 781 ?962 773 955 6 978 +0 0 962 773 23 50 977 1619 0 962 979 97
8 0 +.08274 -.052539999999999 -.005425 1 -1346145417358e-27 0 1346145417358e-27
 1 0 14 962 1589 981 ?964 778 958 6 977 +0 0 964 778 23 51 979 1620 0 964 985 97
7 0 -.08629 -.052539999999999 -.00507 -1346145417358e-27 -1 -312907381349924e-29
 .00355 0 312907381349924e-29 -1 14 964 1593 983 ?969 962 965 6 979 +0 0 969 962
 23 50 985 1621 0 969 982 979 0 +.08951 -.052539999999999 -.00151999999999997 33
71476895864225e-45 312907381349924e-29 -1 0 1 312907381349924e-29 14 969 1597 98
4 ?848 964 963 6 985 +0 0 848 964 23 51 982 1622 0 848 865 985 0 -.09273 -.05253
9999999999 -.00507 -1346145417358e-27 -1 -312907381349924e-29 .00355 0 312907381
349924e-29 -1 14 848 1601 986 ?331 969 967 6 982 +0 0 331 969 23 50 865 4099 0 3
44 0 982 0 +.1565 -.0695 .00166 0 0 1 1 0 0 81 1 986 4854 738 848 990 0 984 850
 987 81 1 990 1828 28 848 0 986 988 989 992 81 1 984 4853 738 969 988 0 983 986
 995 81 1 850 4855 738 331 994 0 986 852 991 83 3 987 .917647058823529 .91764705
8823529 .917647058823529 81 1 994 4323 28 331 0 850 993 856 996 81 1 852 4856 73
8 847 997 0 850 853 999 83 3 991 .917647058823529 .917647058823529 .917647058823
529 81 1 997 4325 28 847 0 852 856 998 1000 81 1 853 4857 738 855 993 0 852 857
 1002 83 3 999 .917647058823529 .917647058823529 .917647058823529 81 1 993 4322
 28 855 0 853 1005 994 1004 83 3 1002 .917647058823529 .917647058823529 .9176470
58823529 81 1 1005 4320 28 842 0 885 1001 993 1003 82 3 1004 40 8 2 81 1 885 483
7 738 842 1005 0 886 843 1010 81 1 1001 4319 28 884 0 886 1006 1005 1008 82 3 10
03 40 6 2 81 1 886 4836 738 884 1001 0 890 885 1007 81 1 1006 4318 28 887 0 890
 1009 1001 1011 82 3 1008 40 5 2 81 1 890 4835 738 887 1006 0 891 886 1015 81 1
 1009 4317 28 892 0 891 1012 1006 1013 82 3 1011 40 4 2 81 1 891 4834 738 892 10
09 0 896 890 1014 81 1 1012 4316 28 893 0 896 905 1009 1017 82 3 1013 40 3 2 81
 1 896 4833 738 893 1012 0 899 891 1020 81 1 905 4315 28 898 0 899 1019 1012 101
6 82 3 1017 40 2 2 81 1 1019 4314 28 817 0 825 624 905 1018 82 3 1016 40 1 2 81
 1 825 4831 738 817 1019 0 793 899 1024 81 1 624 4313 28 623 0 0 604 1019 1025 8
2 3 1018 40 0 2 81 1 604 4312 28 328 0 0 621 624 1022 82 3 1025 40 15 1 81 1 621
 4311 28 618 0 0 627 604 1023 82 3 1022 40 14 1 81 1 627 4310 28 626 0 0 610 621
 1021 82 3 1023 40 13 1 81 1 610 4309 28 333 0 0 327 627 1028 82 3 1021 40 12 1
 81 1 327 4308 28 317 0 0 632 610 1030 82 3 1028 40 11 1 81 1 632 4307 28 628 0
 0 605 327 1026 82 3 1030 40 10 1 81 1 605 4306 28 329 0 0 552 632 1029 82 3 102
6 40 9 1 81 1 552 4305 28 548 0 0 551 605 1027 82 3 1029 40 8 1 81 1 551 4304 28
 555 0 0 557 552 1031 82 3 1027 40 7 1 81 1 557 4303 28 553 0 0 560 551 1035 82
 3 1031 40 6 1 81 1 560 4302 28 559 0 0 564 557 1033 82 3 1035 40 5 1 81 1 564 4
301 28 562 0 0 570 560 1032 82 3 1033 40 4 1 81 1 570 4300 28 561 0 0 567 564 10
34 82 3 1032 40 3 1 81 1 567 4299 28 566 0 0 575 570 1036 82 3 1034 40 2 1 81 1
 575 4298 28 569 0 0 1040 567 1038 82 3 1036 40 1 1 81 1 1040 4297 28 1 0 1037 1
039 575 1041 82 3 1038 40 0 1 81 1 1037 4825 1045 1 1040 14 0 0 1042 81 1 1039 4
072 28 344 0 757 252 1040 1043 82 3 1041 7 0 3 81 1 757 4859 738 344 1039 0 857
 751 1044 81 1 252 4001 28 254 0 0 260 1039 1047 82 3 1043 39 17 2 81 1 260 3999
 28 251 0 0 261 252 1050 82 3 1047 39 15 0 81 1 261 3997 28 259 0 0 264 260 1049
 82 3 1050 39 13 0 81 1 264 3995 28 263 0 0 267 261 1046 82 3 1049 39 11 0 81 1
 267 3993 28 270 0 0 272 264 1048 82 3 1046 39 9 0 81 1 272 3991 28 271 0 0 280
 267 1051 82 3 1048 39 7 0 81 1 280 3989 28 274 0 0 285 272 1052 82 3 1051 39 5
 0 81 1 285 3987 28 284 0 0 293 280 1054 82 3 1052 39 3 0 81 1 293 3985 28 295 0
 0 302 285 1053 82 3 1054 39 17 0 81 1 302 3983 28 298 0 0 303 293 1055 82 3 105
3 39 25 0 81 1 303 3981 28 304 0 0 308 302 1057 82 3 1055 39 31 0 81 1 308 3979
 28 310 0 0 286 303 1060 82 3 1057 39 29 0 81 1 286 3969 28 290 0 0 300 308 1059
 82 3 1060 39 23 0 81 1 300 3963 28 294 0 0 315 286 1056 82 3 1059 39 19 0 82 3
 1056 39 27 0 83 3 1044 .917647058823529 .917647058823529 .917647058823529 80 1
 1045 1058 1065 8038 0 0 0 0 0 0 0 0 0 TTTTTTTTTTTTTFTFT10 81 1 14 4826 1058 1 1
037 2 0 0 1061 98 255 8 1042 80 97 114 116 32 49 52 54 80 1 1058 1063 1062 8017
 0 0 0 0 0 0 0 0 0 TTTTTTTTTTTTTFTFT3 84 255 8 1061 Part 14679 13 1062 SDL/TYSA_
NAME79 14 1065 SDL/TYSA_UNAME83 3 1024 .917647058823529 .917647058823529 .917647
058823529 83 3 1020 .917647058823529 .917647058823529 .917647058823529 83 3 1014
 .917647058823529 .917647058823529 .917647058823529 83 3 1015 .917647058823529 .
917647058823529 .917647058823529 83 3 1007 .917647058823529 .917647058823529 .91
7647058823529 81 1 843 4838 738 845 1064 0 885 838 1066 83 3 1010 .9176470588235
29 .917647058823529 .917647058823529 81 1 1064 4327 28 845 0 843 998 1070 1067 8
1 1 838 4839 738 321 998 0 843 840 1068 83 3 1066 .917647058823529 .917647058823
529 .917647058823529 81 1 998 4326 28 321 0 838 997 1064 1069 81 1 840 4840 738
 833 1070 0 838 834 1072 83 3 1068 .917647058823529 .917647058823529 .9176470588
23529 81 1 1070 4328 28 833 0 840 1064 1075 1074 81 1 834 4841 738 831 1075 0 84
0 775 1071 83 3 1072 .917647058823529 .917647058823529 .917647058823529 81 1 107
5 4329 28 831 0 834 1070 41 1073 83 3 1071 .917647058823529 .917647058823529 .91
7647058823529 81 1 41 4758 28 47 0 0 1075 34 1079 82 3 1073 40 15 2 82 3 1079 47
 0 0 82 3 1074 40 14 2 82 3 1069 40 12 2 82 3 1067 40 13 2 81 1 856 4324 28 859
 0 857 994 997 1080 82 3 1000 40 11 2 82 3 1080 40 10 2 82 3 996 40 9 2 81 1 988
 1827 28 969 0 984 1077 990 1078 81 1 983 4852 738 964 1077 0 981 984 1076 83 3
 995 .917647058823529 .917647058823529 .917647058823529 81 1 1077 1826 28 964 0
 983 1083 988 1085 81 1 981 4851 738 962 1083 0 781 983 1081 83 3 1076 .91764705
8823529 .917647058823529 .917647058823529 81 1 1083 1825 28 962 0 981 1084 1077
 1082 81 1 781 4850 738 778 1084 0 776 981 1086 83 3 1081 .917647058823529 .9176
47058823529 .917647058823529 81 1 1084 1824 28 778 0 781 972 1083 1090 83 3 1086
 .917647058823529 .917647058823529 .917647058823529 81 1 972 1822 28 780 0 784 4
27 1084 1088 82 3 1090 31 2 2 81 1 427 1821 28 430 0 0 435 972 1087 82 3 1088 31
 0 2 81 1 435 1820 28 429 0 0 436 427 1089 82 3 1087 31 23 1 81 1 436 1819 28 43
2 0 0 439 435 1091 82 3 1089 31 22 1 81 1 439 1818 28 437 0 0 441 436 1095 82 3
 1091 31 21 1 81 1 441 1817 28 445 0 0 449 439 1093 82 3 1095 31 20 1 81 1 449 1
816 28 446 0 0 455 441 1092 82 3 1093 31 19 1 81 1 455 1815 28 450 0 0 453 449 1
094 82 3 1092 31 18 1 81 1 453 1814 28 454 0 0 483 455 1096 82 3 1094 31 17 1 81
 1 483 1813 28 481 0 0 457 453 1100 82 3 1096 31 16 1 81 1 457 1812 28 456 0 0 4
62 483 1097 82 3 1100 31 15 1 81 1 462 1811 28 461 0 0 470 457 1098 82 3 1097 31
 14 1 81 1 470 1810 28 464 0 0 474 462 1099 82 3 1098 31 13 1 81 1 474 1809 28 4
66 0 0 471 470 1102 82 3 1099 31 12 1 81 1 471 1808 28 472 0 0 479 474 1105 82 3
 1102 31 11 1 81 1 479 1806 28 480 0 0 601 471 1104 82 3 1105 31 10 1 81 1 601 1
805 28 597 0 0 576 479 1101 82 3 1104 31 8 1 81 1 576 1804 28 580 0 0 585 601 11
03 82 3 1101 31 7 1 81 1 585 1803 28 578 0 0 588 576 1106 82 3 1103 31 6 1 81 1
 588 1802 28 583 0 0 589 585 1107 82 3 1106 31 5 1 81 1 589 1801 28 590 0 0 595
 588 1109 82 3 1107 31 4 1 81 1 595 1800 28 587 0 0 594 589 1108 82 3 1109 31 3
 1 81 1 594 1799 28 593 0 0 598 595 1110 82 3 1108 31 2 1 81 1 598 1798 28 596 0
 0 152 594 1112 82 3 1110 31 1 1 81 1 152 1797 28 155 0 0 244 598 1115 82 3 1112
 31 0 1 81 1 244 1796 28 242 0 0 236 152 1114 82 3 1115 31 15 0 81 1 236 1795 28
 233 0 0 228 244 1111 82 3 1114 31 14 0 81 1 228 1794 28 227 0 0 222 236 1113 82
 3 1111 31 13 0 81 1 222 1793 28 218 0 0 200 228 1120 82 3 1113 31 12 0 81 1 200
 1791 28 193 0 0 246 222 1116 82 3 1120 31 11 0 81 1 246 1789 28 250 0 0 158 200
 1118 82 3 1116 31 9 0 81 1 158 1788 28 156 0 0 241 246 1117 82 3 1118 31 7 0 81
 1 241 1787 28 237 0 0 234 158 1119 82 3 1117 31 6 0 81 1 234 1786 28 232 0 0 22
3 241 1121 82 3 1119 31 5 0 81 1 223 1785 28 224 0 0 220 234 1125 82 3 1121 31 4
 0 81 1 220 1784 28 214 0 0 203 223 1122 82 3 1125 31 3 0 81 1 203 1783 28 198 0
 0 207 220 1123 82 3 1122 31 2 0 81 1 207 1782 28 210 0 0 574 203 1124 82 3 1123
 31 1 0 81 1 574 1145 28 572 0 0 506 207 1127 82 3 1124 31 0 0 81 1 506 1143 28
 510 0 0 513 574 1130 82 3 1127 23 12 1 81 1 513 1141 28 515 0 0 520 506 1129 82
 3 1130 23 10 1 81 1 520 1139 28 514 0 0 522 513 1126 82 3 1129 23 8 1 81 1 522
 1137 28 518 0 0 523 520 1128 82 3 1126 23 6 1 81 1 523 1135 28 524 0 0 528 522
 1134 82 3 1128 23 4 1 81 1 528 1133 28 530 0 0 165 523 1135 82 3 1134 23 2 1 81
 1 165 1127 28 159 0 0 188 528 1132 82 3 1135 23 0 1 81 1 188 1125 28 190 0 0 18
4 165 1133 82 3 1132 23 14 0 81 1 184 1123 28 183 0 0 185 188 1131 82 3 1133 23
 12 0 81 1 185 1121 28 176 0 0 180 184 1138 82 3 1131 23 10 0 81 1 180 1119 28 1
75 0 0 174 185 1140 82 3 1138 23 8 0 81 1 174 1117 28 171 0 0 164 180 1136 82 3
 1140 23 6 0 81 1 164 1115 28 162 0 0 166 174 1139 82 3 1136 23 4 0 81 1 166 111
3 28 170 0 0 194 164 1137 82 3 1139 23 2 0 81 1 194 919 28 192 0 0 0 166 1141 82
 3 1137 23 0 0 82 3 1141 22 6 0 82 3 1082 31 3 2 82 3 1085 31 4 2 82 3 1078 31 5
 2 81 1 989 1829 28 798 0 801 990 202 1145 82 3 992 31 6 2 81 1 801 4847 738 798
 989 0 800 784 1143 81 1 202 3158 28 201 0 0 989 213 1142 82 3 1145 31 7 2 81 1
 213 3159 28 211 0 0 202 147 1144 82 3 1142 37 0 0 81 1 147 3163 28 146 0 0 213
 507 1146 82 3 1144 37 1 0 81 1 507 3176 28 503 0 0 147 148 1150 82 3 1146 37 5
 0 81 1 148 3452 28 143 0 0 507 129 1148 82 3 1150 37 10 1 81 1 129 3454 28 128
 0 0 148 145 1147 82 3 1148 38 1 0 81 1 145 3456 28 138 0 0 129 139 1149 82 3 11
47 38 3 0 81 1 139 3458 28 137 0 0 145 130 1151 82 3 1149 38 5 0 81 1 130 3461 2
8 121 0 0 139 125 1155 82 3 1151 38 7 0 81 1 125 3462 28 120 0 0 130 133 1152 82
 3 1155 38 10 0 81 1 133 3465 28 135 0 0 125 119 1153 82 3 1152 38 11 0 81 1 119
 3466 28 116 0 0 133 614 1154 82 3 1153 38 14 0 81 1 614 3470 28 611 0 0 119 616
 1157 82 3 1154 38 15 0 81 1 616 3474 28 620 0 0 614 608 1160 82 3 1157 38 3 1 8
1 1 608 3478 28 609 0 0 616 617 1159 82 3 1160 38 7 1 81 1 617 3482 28 613 0 0 6
08 539 1156 82 3 1159 38 11 1 81 1 539 3484 28 324 0 0 617 550 1158 82 3 1156 38
 15 1 81 1 550 3486 28 544 0 0 539 540 1161 82 3 1158 38 17 1 81 1 540 3488 28 5
32 0 0 550 543 1162 82 3 1161 38 19 1 81 1 543 3490 28 541 0 0 540 877 1164 82 3
 1162 38 21 1 81 1 877 3500 28 769 0 775 543 364 1163 82 3 1164 38 23 1 81 1 364
 3856 28 356 0 0 877 349 1165 82 3 1163 38 9 2 81 1 349 3870 28 370 0 0 364 348
 1167 82 3 1165 39 43 1 82 3 1167 39 45 1 83 3 1143 .917647058823529 .9176470588
23529 .917647058823529 83 3 976 .917647058823529 .917647058823529 .9176470588235
29 17 410 0 782 97 79 73 934 402 0 935 +17 97 0 782 426 410 96 935 646 0 929 +17
 426 0 782 113 97 95 929 421 0 930 +17 113 0 782 425 426 115 930 657 0 924 +17 4
25 0 782 71 113 107 924 418 0 917 +83 3 902 .917647058823529 .917647058823529 .9
17647058823529 83 3 878 .917647058823529 .917647058823529 .917647058823529 83 3
 863 .917647058823529 .917647058823529 .917647058823529 83 3 822 .91764705882352
9 .917647058823529 .917647058823529 83 3 816 .917647058823529 .917647058823529 .
917647058823529 83 3 811 .917647058823529 .917647058823529 .917647058823529 83 3
 808 .917647058823529 .917647058823529 .917647058823529 83 3 794 .91764705882352
9 .917647058823529 .917647058823529 83 3 783 .917647058823529 .917647058823529 .
917647058823529 83 3 771 .917647058823529 .917647058823529 .917647058823529 83 3
 762 .917647058823529 .917647058823529 .917647058823529 83 3 759 .91764705882352
9 .917647058823529 .917647058823529 83 3 754 .917647058823529 .917647058823529 .
917647058823529 83 3 750 .917647058823529 .917647058823529 .917647058823529 83 3
 745 .917647058823529 .917647058823529 .917647058823529 81 1 74 4777 28 73 0 0 9
8 686 1170 82 3 693 47 0 1 81 1 98 4776 28 96 0 0 94 74 1169 82 3 1170 47 19 0 8
1 1 94 4775 28 95 0 0 111 98 1166 82 3 1169 47 18 0 81 1 111 4774 28 115 0 0 109
 94 1168 82 3 1166 47 17 0 81 1 109 4773 28 107 0 0 75 111 1175 82 3 1168 47 16
 0 81 1 75 4772 28 66 0 0 64 109 1171 82 3 1175 47 15 0 81 1 64 4771 28 61 0 0 7
0 75 1173 82 3 1171 47 14 0 81 1 70 4770 28 65 0 0 84 64 1172 82 3 1173 47 13 0
 81 1 84 4769 28 82 0 0 78 70 1174 82 3 1172 47 12 0 81 1 78 4768 28 80 0 0 57 8
4 1176 82 3 1174 47 11 0 81 1 57 4767 28 53 0 0 89 78 1180 82 3 1176 47 10 0 81
 1 89 4766 28 81 0 0 86 57 1177 82 3 1180 47 9 0 81 1 86 4765 28 87 0 0 105 89 1
178 82 3 1177 47 8 0 81 1 105 4764 28 99 0 0 106 86 1179 82 3 1178 47 7 0 81 1 1
06 4763 28 102 0 0 56 105 1182 82 3 1179 47 6 0 81 1 56 4762 28 60 0 0 35 106 11
85 82 3 1182 47 5 0 81 1 35 4761 28 37 0 0 30 56 1184 82 3 1185 47 4 0 82 3 1184
 47 3 0 79 9 692 BTI/DetId81 1 401 3931 28 398 0 0 399 281 1181 81 1 399 3928 28
 397 0 0 393 401 1183 81 1 281 3945 28 276 0 0 401 315 1189 82 3 1181 39 21 1 82
 3 1189 39 1 0 81 1 393 3925 28 392 0 0 388 399 1190 82 3 1183 39 19 1 81 1 388
 3922 28 389 0 0 387 393 1187 82 3 1190 39 17 1 81 1 387 3919 28 383 0 0 385 388
 1188 82 3 1187 39 15 1 81 1 385 3916 28 379 0 0 378 387 1186 82 3 1188 39 13 1
 81 1 378 3913 28 376 0 0 372 385 1193 82 3 1186 39 11 1 81 1 372 3910 28 375 0
 0 371 378 1195 82 3 1193 39 9 1 81 1 371 3907 28 346 0 0 361 372 1191 82 3 1195
 39 23 1 81 1 361 3904 28 362 0 0 360 371 1194 82 3 1191 39 33 1 81 1 360 3901 2
8 354 0 0 353 361 1192 82 3 1194 39 37 1 81 1 353 3898 28 340 0 0 338 360 1196 8
2 3 1192 39 39 1 81 1 338 3895 28 334 0 0 348 353 1200 82 3 1196 39 47 1 82 3 12
00 39 35 1 82 3 351 39 41 1 82 3 314 39 21 0 82 3 45 47 1 0 82 3 32 47 2 0 19 18
 375 0 1 0 10 6 0 S0 74 4 CI16 index_map_offset0 0 1 dCCZ20 16 5 0 0 820 1037 14
 2 749 0 0 0 0 0 0 0 0 0 0 0 0 0 0 0 80 1 13 738 1198 8040 0 0 0 0 3 5 0 0 0 TTT
FFFFFFFFFFFFFF2 83 3 15 .917647058823529 .917647058823529 .917647058823529 79 17
 1198 SDL/TYSA_COLOUR_21 0 
